<?xml version="1.0" encoding="utf-8"?>
<!-- Generator: Adobe Illustrator 26.0.2, SVG Export Plug-In . SVG Version: 6.00 Build 0)  -->
<svg version="1.1" id="Layer_1" xmlns="http://www.w3.org/2000/svg" xmlns:xlink="http://www.w3.org/1999/xlink" x="0px" y="0px"
	 viewBox="0 0 500 500" style="enable-background:new 0 0 500 500;" xml:space="preserve">
<style type="text/css">
	.st0{fill:#FFFFFF;}
	.st1{fill:#E93842;}
</style>
<circle class="st0" cx="250" cy="250" r="245.1"/>
<g>
	<path class="st1" d="M389,252.7c-1.8,6.3-6.5,10.5-10.6,15.2c-14.5,16.6-30.6,31.6-48.9,44c-18.2,12.3-37.7,21.8-59.5,25.8
		c-19.5,3.6-38.5,1.8-57.2-4.4c-26-8.7-48.2-23.5-68.1-41.9c-10.4-9.7-19.9-20.5-29.5-31c-5.7-6.3-5.6-14-0.2-20.4
		c16.2-19.6,34.3-37.3,55.4-51.6c18.2-12.4,37.7-21.8,59.5-25.8c19.5-3.6,38.5-1.9,57.2,4.3c25.9,8.6,48.1,23.3,67.9,41.7
		c10.6,9.8,20.1,20.8,29.9,31.4c1.9,2,2.8,4.9,4.1,7.5C389,249.1,389,250.9,389,252.7z M314.8,250.3c0.4-35.5-28.3-64.6-64.3-65.1
		c-35.5-0.5-64.5,28.2-65.1,64.2c-0.6,35.5,28.4,64.9,64.4,65.2C285.3,315.1,314.3,286.3,314.8,250.3z"/>
	<path class="st1" d="M250.2,205.3c24.8,0.1,44.7,20.1,44.6,44.8c-0.1,24.8-20.1,44.7-44.8,44.6c-24.8-0.1-44.7-20.1-44.6-44.8
		C205.5,225.1,225.5,205.2,250.2,205.3z M221.9,246.7c5,0,9.7,0,14.4,0c0.9-5.4,3.6-8.9,9.1-9.9c0.5-0.1,1.2-0.9,1.2-1.4
		c0.1-4.4,0.1-8.8,0.1-13.2C233.6,221.7,221.6,233.6,221.9,246.7z"/>
</g>
<g>
	<path class="st1" d="M422.7,206.9c-7.1,0-14.1,0-21.6,0c0-1.4,0-2.6,0-3.8c0-26.6,0-53.3,0-79.9c0-15.5-8.7-24.2-24.3-24.2
		c-26.5,0-53,0-79.6,0c-1.2,0-2.4,0-3.9,0c0-7.2,0-14.2,0-21.6c1.3,0,2.5,0,3.7,0c26.6,0,53.3,0.3,79.9-0.1c26-0.4,43,18.5,45.1,37
		c0,0.3,0.3,0.5,0.5,0.8C422.7,145.7,422.7,176.3,422.7,206.9z"/>
	<path class="st1" d="M115.1,422.7c-3.1-0.9-6.3-1.6-9.3-2.7c-16.6-5.9-28.2-21.4-28.4-38.9c-0.3-28.8-0.1-57.6-0.1-86.3
		c0-0.4,0.1-0.8,0.2-1.4c7.1,0,14,0,21.4,0c0,1.3,0,2.6,0,3.9c0,26.6,0,53.3,0,79.9c0,15.1,8.8,23.9,23.8,23.9c26.6,0,53.3,0,79.9,0
		c1.2,0,2.5,0,4.2,0c0,7.3,0,14.4,0,21.6C176.3,422.7,145.7,422.7,115.1,422.7z"/>
	<path class="st1" d="M293.2,422.7c0-7.1,0-14.1,0-21.6c1.4,0,2.6,0,3.8,0c26.6,0,53.3,0,79.9,0c15.5,0,24.2-8.7,24.2-24.2
		c0-26.5,0-53,0-79.6c0-1.2,0-2.5,0-4.2c7.3,0,14.4,0,21.6,0c0,30.6,0,61.2,0,91.7c-0.2,0.5-0.5,1-0.6,1.5
		c-3.1,16.8-12.9,28.1-28.9,34c-2.7,1-5.5,1.5-8.3,2.3C354.3,422.7,323.8,422.7,293.2,422.7z"/>
	<path class="st1" d="M99,206.7c-7.3,0-14.2,0-21.4,0c-0.1-1-0.2-1.9-0.2-2.9c0-27.5-0.1-55.1,0-82.6c0.1-21.2,13.6-38.2,34-42.9
		c2.2-0.5,4.4-0.9,6.7-0.9c29.4-0.1,58.9,0,88.6,0c0,7,0,14,0,21.5c-1.2,0-2.5,0-3.8,0c-26.6,0-53.2,0-79.9,0
		c-15.2,0-24,8.8-24,24.1c0,26.6,0,53.3,0,79.9C99,204.2,99,205.4,99,206.7z"/>
</g>
</svg>
