<?xml version="1.0" encoding="utf-8"?>
<!-- Generator: Adobe Illustrator 26.0.2, SVG Export Plug-In . SVG Version: 6.00 Build 0)  -->
<svg version="1.1" id="Layer_1" xmlns="http://www.w3.org/2000/svg" xmlns:xlink="http://www.w3.org/1999/xlink" x="0px" y="0px"
	 viewBox="0 0 500 500" style="enable-background:new 0 0 500 500;" xml:space="preserve">
<style type="text/css">
	.st0{fill:#FFFFFF;}
	.st1{fill:#E93842;}
</style>
<circle class="st0" cx="250" cy="250" r="245.1"/>
<g>
	<path class="st1" d="M389,383.5c-2.1,4.2-5.5,5.5-10.1,5.5c-45.6-0.1-91.2-0.1-136.8-0.1c-5.8,0-9.5-3.9-8.3-9c0.4-1.8,1.7-3.6,3-5
		c21-22.4,42-44.7,63-67c25-26.5,50-53.1,74.9-79.6c2.3-2.5,4.8-4.1,8.3-3.4c3.1,0.6,4.7,2.8,5.9,5.5C389,281.5,389,332.5,389,383.5
		z M353.5,302.8c-16.1,17.1-31.7,33.7-47.7,50.6c16.3,0,31.9,0,47.7,0C353.5,336.6,353.5,320.1,353.5,302.8z"/>
	<path class="st1" d="M141.5,111c5.1,1.9,7,5.6,7,10.9c-0.1,64.7,0,129.4,0,194.1c0,1.1,0,2.1,0,3.3c-12.7,0.9-25.6-2.3-37.3,5.6
		c0-1.6,0-2.7,0-3.8c0-62.5,0.1-125-0.1-187.6c0-10.5,3.5-19.4,15.9-22.6C131.7,111,136.6,111,141.5,111z"/>
	<path class="st1" d="M164.7,144.1c1.3,0,2.3,0,3.3,0c65,0,129.9,0,194.9,0c6.9,0,9.9,3,9.9,9.9c0,16.8,0,33.7-0.1,50.5
		c0,1.3-0.7,3-1.6,4c-51,54.3-102,108.5-153.1,162.7c-0.9,1-2.6,1.7-3.9,1.7c-27.7,0.1-55.4,0.1-83.1,0.1
		c-11.7,0-20.2-8.4-19.8-19.4c0.3-9.6,8.3-17.5,17.8-17.7c5.9-0.1,11.8,0,17.6,0c11.4,0,18.1-6.7,18.1-18c0-56.5,0-112.9,0-169.4
		C164.7,147,164.7,145.8,164.7,144.1z M183.5,236.4c0,8.2,0.1,16.5,0,24.7c0,4,1.6,6.8,5.1,8.8c14.3,8.1,28.5,16.4,42.8,24.6
		c3.4,2,6.6,2,10,0.1c14.2-8.3,28.5-16.5,42.8-24.6c3.3-1.9,4.9-4.6,4.9-8.4c0-16.6,0-33.1,0-49.7c0-3.7-1.5-6.4-4.8-8.2
		c-14.4-8.3-28.8-16.6-43.2-24.9c-3.4-2-6.6-1.9-10,0.1c-14.1,8.2-28.1,16.3-42.3,24.4c-3.6,2.1-5.3,4.9-5.3,9
		C183.6,220.3,183.5,228.4,183.5,236.4z"/>
	<path class="st1" d="M228.3,274c-3.8-2.2-7.1-4.1-10.5-6c-5.4-3.1-10.8-6.2-16.2-9.4c-0.8-0.5-1.7-1.7-1.8-2.6
		c-0.1-9.8-0.1-19.7,0-29.5c0-0.2,0.1-0.5,0.3-1c0.7,0.3,1.3,0.5,1.9,0.9c8.1,4.7,16.3,9.3,24.4,14.1c0.8,0.5,1.8,1.7,1.8,2.5
		C228.3,253.1,228.3,263.2,228.3,274z"/>
	<path class="st1" d="M264.2,211.3c-6.4,3.7-12.7,7.4-19.1,11c-2.9,1.7-5.8,4.5-8.8,4.5c-2.9,0-5.9-2.8-8.7-4.5
		c-6.4-3.7-12.8-7.4-19.6-11.3c1.6-1,3-1.8,4.4-2.6c7.3-4.2,14.5-8.4,21.9-12.6c0.8-0.5,2.4-0.7,3.1-0.3c8.8,4.9,17.4,9.9,26.1,15
		C263.8,210.7,263.9,211,264.2,211.3z"/>
	<path class="st1" d="M272.7,225.7c0,10.4,0,20.5-0.1,30.7c0,0.7-0.6,1.8-1.2,2.1c-8.7,5.1-17.4,10-26.1,15c-0.1,0.1-0.3,0-0.8,0
		c0-4.5,0-9,0-13.5c0-5.5-0.1-11,0.1-16.5c0-0.9,0.5-2.2,1.2-2.6c8.6-5.1,17.2-10,25.8-14.9C271.8,225.8,272.1,225.8,272.7,225.7z"
		/>
</g>
</svg>
