<svg width="40" height="40" viewBox="0 0 40 40" fill="none" xmlns="http://www.w3.org/2000/svg">
<ellipse cx="20" cy="20.1827" rx="20" ry="19.7413" fill="white"/>
<path d="M26.5808 12.2862H14.4192C13.0462 12.2862 12 13.3188 12 14.6741V26.6783C12 28.0336 13.0462 29.0662 14.4192 29.0662H26.5808C27.9538 29.0662 29 28.0336 29 26.6783V14.6741C29 13.3188 27.9538 12.2862 26.5808 12.2862ZM20.5 25.7102C23.3115 25.7102 25.6 23.5159 25.6 20.8698C25.6 20.418 25.5346 19.9017 25.4038 19.5145H26.8423V26.3556C26.8423 26.6783 26.5808 27.001 26.1885 27.001H14.8115C14.4846 27.001 14.1577 26.7428 14.1577 26.3556V19.45H15.6615C15.5308 19.9017 15.4654 20.3535 15.4654 20.8053C15.4 23.5159 17.6885 25.7102 20.5 25.7102ZM20.5 23.7741C18.6692 23.7741 17.2308 22.3542 17.2308 20.6117C17.2308 18.8691 18.6692 17.4493 20.5 17.4493C22.3308 17.4493 23.7692 18.8691 23.7692 20.6117C23.7692 22.4187 22.3308 23.7741 20.5 23.7741ZM26.7769 16.8684C26.7769 17.2556 26.45 17.5783 26.0577 17.5783H24.2269C23.8346 17.5783 23.5077 17.2556 23.5077 16.8684V15.1259C23.5077 14.7386 23.8346 14.4159 24.2269 14.4159H26.0577C26.45 14.4159 26.7769 14.7386 26.7769 15.1259V16.8684Z" fill="#F64152"/>
</svg>
