<svg width="40" height="40" viewBox="0 0 40 40" fill="none" xmlns="http://www.w3.org/2000/svg">
<ellipse cx="20" cy="20.1827" rx="20" ry="19.7413" fill="white"/>
<path d="M28 20.9174V26.3618H24.7713V21.2494C24.7713 19.9879 24.3004 19.1248 23.157 19.1248C22.2825 19.1248 21.7444 19.7223 21.5426 20.2535C21.4753 20.4527 21.4081 20.7183 21.4081 21.0502V26.3618H18.1794C18.1794 26.3618 18.2466 17.7305 18.1794 16.8674H21.4081V18.1953C21.8117 17.5313 22.6188 16.6018 24.3004 16.6018C26.3856 16.6018 28 17.9961 28 20.9174ZM14.8161 12.2862C13.7399 12.2862 13 13.0165 13 13.946C13 14.8755 13.6726 15.6059 14.7489 15.6059C15.8924 15.6059 16.565 14.8755 16.565 13.946C16.6323 12.9501 15.9596 12.2862 14.8161 12.2862ZM13.2018 26.3618H16.4305V16.8674H13.2018V26.3618Z" fill="#F64152"/>
</svg>
