<?xml version="1.0" encoding="utf-8"?>
<!-- Generator: Adobe Illustrator 26.0.2, SVG Export Plug-In . SVG Version: 6.00 Build 0)  -->
<svg version="1.1" id="Layer_1" xmlns="http://www.w3.org/2000/svg" xmlns:xlink="http://www.w3.org/1999/xlink" x="0px" y="0px"
	 viewBox="0 0 500 500" style="enable-background:new 0 0 500 500;" xml:space="preserve">
<style type="text/css">
	.st0{fill:#FFFFFF;}
	.st1{fill:#E93842;}
</style>
<circle class="st0" cx="250" cy="250" r="245.1"/>
<g>
	<path class="st1" d="M390,231.4c-0.5,2-1,4-1.6,6c-1.7,5.3-4.7,9.8-8.7,13.7c-20.8,20.7-41.4,41.6-62.3,62.2c-3.1,3-7,5.7-11,7.3
		c-7.3,3-14.9-0.2-17.9-7.5c-1.7-4.1-2.3-8.8-2.6-13.2c-0.4-6.6-0.1-13.3-0.1-20.4c-3.8,0.2-7.4,0.3-11,0.7
		c-53.4,5.3-98.7,27.3-135.4,66.4c-4.9,5.2-9.3,10.9-13.9,16.5c-2.9,3.6-6.1,4.9-9.8,3.6c-3.7-1.2-5.8-4.3-5.6-9
		c1.9-67.8,31.7-119.9,88.8-156.1c25.3-16.1,53.4-24.3,83.3-26.2c0.8-0.1,1.6-0.1,2.4-0.2c0.3,0,0.5-0.1,1.2-0.3c0-1.5,0-3.1,0-4.7
		c0.1-7.2-0.1-14.4,0.5-21.6c0.6-6.9,3.6-12.7,10.7-15.1c4.7-1.6,9.3-0.7,13.3,1.9c2.6,1.6,5.1,3.6,7.3,5.7
		c20.8,20.7,41.5,41.5,62.3,62.2c5.2,5.2,8.7,11.4,9.8,18.8c0,0.3,0.3,0.6,0.4,1C390,226,390,228.7,390,231.4z"/>
</g>
</svg>
