<?xml version="1.0" encoding="utf-8"?>
<!-- Generator: Adobe Illustrator 26.0.2, SVG Export Plug-In . SVG Version: 6.00 Build 0)  -->
<svg version="1.1" id="Layer_1" xmlns="http://www.w3.org/2000/svg" xmlns:xlink="http://www.w3.org/1999/xlink" x="0px" y="0px"
	 viewBox="0 0 500 500" style="enable-background:new 0 0 500 500;" xml:space="preserve">
<style type="text/css">
	.st0{fill:#FFFFFF;}
	.st1{fill:#E93842;}
</style>
<circle class="st0" cx="250" cy="250" r="245.1"/>
<g>
	<path class="st1" d="M417,309.3c-1.6,6.4-4.7,11.9-10.5,15.4c-6.5,3.9-13.4,4.7-20.2,1.2c-7.5-3.8-14.6-8.1-21.9-12.2
		c-11.6-6.6-23.1-13.3-34.8-19.9c-2-1.1-2.9-2.3-2.9-4.8c0.1-26.2,0.1-52.4,0-78.5c0-2.4,0.8-3.6,2.8-4.8
		c17.4-10,35.1-19.6,52.1-30.2c15-9.3,32.6-1,35,14.2c0,0.3,0.2,0.6,0.3,0.8C417,230.2,417,269.8,417,309.3z"/>
	<path class="st1" d="M195.9,152c24.9,0,49.8-0.1,74.7,0c18.9,0.1,33.2,11.2,37.1,28.9c0.7,3.1,0.9,6.3,0.9,9.4
		c0.1,39.9,0.1,79.8,0,119.6c0,19.4-12,34.2-30.4,37.6c-2,0.4-4.1,0.5-6.2,0.5c-50.9,0-101.7,0.2-152.6-0.1
		c-17.5-0.1-31.4-11.5-35.3-28.2c-0.7-3.1-1-6.4-1-9.7c-0.1-40-0.1-80,0-120c0-22.3,15.6-38,37.8-38.1
		C145.9,151.9,170.9,152,195.9,152z"/>
</g>
</svg>
