<?xml version="1.0" encoding="utf-8"?>
<!-- Generator: Adobe Illustrator 26.0.2, SVG Export Plug-In . SVG Version: 6.00 Build 0)  -->
<svg version="1.1" id="Layer_1" xmlns="http://www.w3.org/2000/svg" xmlns:xlink="http://www.w3.org/1999/xlink" x="0px" y="0px"
	 viewBox="0 0 500 500" style="enable-background:new 0 0 500 500;" xml:space="preserve">
<style type="text/css">
	.st0{fill:#FFFFFF;}
	.st1{fill:#E93842;}
</style>
<circle class="st0" cx="250" cy="250" r="245.1"/>
<g>
	<path class="st1" d="M250.1,250c49.5,0,99,0,148.5,0c9.2,0,16.1,5,17.9,13c0.3,1.5,0.4,3.1,0.4,4.6c0,17.3-0.2,34.5,0.1,51.8
		c0.1,6.9-2.9,11.4-9,13.6c-8.7,3.2-17.7,6-26.6,8.8c-16.4,5.3-32.8,10.4-49.3,15.6c-14.6,4.6-27.1,0.2-35.7-12.4
		c-10.1-14.9-20.2-29.7-30.3-44.6c-9.3-13.7-23.1-13.7-32.3-0.1c-10.2,15-20.3,29.9-30.5,44.9c-8.4,12.4-21.1,16.8-35.5,12.3
		c-23.7-7.5-47.5-15-71.2-22.6c-2.5-0.8-4.9-1.9-7.2-3.1c-4.3-2.4-6.5-6-6.5-11.2c0.1-17.9,0-35.7,0-53.6c0-9.6,7-16.8,16.7-17.1
		c6.9-0.2,13.9,0,20.9,0C163.8,250,207,250,250.1,250z"/>
	<path class="st1" d="M103.6,238.5c1.7-2.6,3-4.6,4.3-6.6c17.4-26,34.9-51.8,52.1-77.9c4-6,9.2-9.6,15.7-11.6
		c10.9-3.3,21.3-1.8,31,4.1c1.8,1.1,2.5,2.2,1.7,4.3c-0.9,2.4-1.2,5.1-1.9,7.9c-6.5-4-13.2-5.7-20.4-3.7
		c-8.1,2.3-13.9,6.9-16.6,15.3c-6.7,21.5-13.6,42.8-20.3,64.3c-1,3.1-2.3,3.9-5.5,3.9C130.6,238.4,117.5,238.5,103.6,238.5z"/>
	<path class="st1" d="M396.3,238.5c-8.6,0-16.5,0-24.5,0c-5.5,0-11-0.2-16.5,0.1c-2.5,0.1-3.5-0.8-4.2-3.1
		c-6.7-21.5-14.2-42.7-20.2-64.4c-3.2-11.4-18.8-21.6-33.7-14.3c-1.1,0.5-2.1,1.1-3.5,1.8c-0.8-3.1-1.6-5.9-2.1-8.8
		c-0.1-0.8,0.4-2,1.1-2.5c11.1-8.8,32.3-8.3,43,1c0.7,0.6,1.3,1.4,1.8,2.2c19.3,28.7,38.5,57.5,57.8,86.3
		C395.5,237,395.7,237.4,396.3,238.5z"/>
</g>
</svg>
