<?xml version="1.0" encoding="utf-8"?>
<!-- Generator: Adobe Illustrator 26.0.2, SVG Export Plug-In . SVG Version: 6.00 Build 0)  -->
<svg version="1.1" id="Layer_1" xmlns="http://www.w3.org/2000/svg" xmlns:xlink="http://www.w3.org/1999/xlink" x="0px" y="0px"
	 viewBox="0 0 500 500" style="enable-background:new 0 0 500 500;" xml:space="preserve">
<style type="text/css">
	.st0{fill:#E93842;}
	.st1{fill:#FFFFFF;}
</style>
<circle class="st0" cx="250" cy="250" r="250"/>
<path class="st1" d="M71.5,252.7c0-22.8,0-45.5,0-68.3c2.8-6,7.6-7.9,14-7.8c15.2,0.3,30.4,0.1,45.6,0.1c1.2,0,2.4,0,3.7,0
	c0-17.4,0-34.2,0-51.1c0-7.4,4.2-11.6,11.7-11.6c90,0,180,0,270,0c7.5,0,11.7,4.2,11.7,11.6c0,20.1,0,40.2,0,60.3
	c0,7.6-4.2,11.8-11.9,11.8c-15.9,0-31.8,0-47.7,0c-1.2,0-2.4,0-3.6,0c0,14.2,0,27.9,0,41.8c1.4,0,2.7,0,3.9,0c15.8,0,31.6,0,47.4,0
	c7.7,0,11.9,4.1,11.9,11.8c0,20,0,40,0,59.9c0,7.9-4.1,11.9-12.1,12c-15.8,0-31.6,0-47.4,0c-1.2,0-2.5,0-4,0c0,1.7,0,2.9,0,4.2
	c0,15.1,0,30.2,0,45.3c0,9.6-3.7,13.3-13.2,13.3c-88.7,0-177.5,0-266.2,0.1c-6.5,0-11.3-1.7-14-7.8c0-22.8,0-45.5,0-68.3
	c2.8-6,7.5-7.9,14-7.8c15.2,0.3,30.4,0.1,45.6,0.1c1.2,0,2.4,0,3.6,0c0-14.2,0-27.9,0-41.8c-1.4,0-2.7,0-3.9,0
	c-15.1,0-30.2-0.2-45.3,0.1C79.1,260.6,74.3,258.8,71.5,252.7z M292,176.5c38.6,0,77,0,115.3,0c0-14,0-27.7,0-41.4
	c-38.6,0-76.8,0-115.3,0C292,149,292,162.6,292,176.5z M207.9,239.4c0-14.1,0-27.8,0-41.5c-38.6,0-76.8,0-115.2,0
	c0,13.9,0,27.7,0,41.5C131.2,239.4,169.4,239.4,207.9,239.4z M407.4,260.7c-38.6,0-77,0-115.3,0c0,14,0,27.7,0,41.4
	c38.6,0,76.8,0,115.3,0C407.4,288.2,407.4,274.6,407.4,260.7z M208.1,323.4c-38.7,0-77,0-115.4,0c0,14,0,27.7,0,41.3
	c38.6,0,77,0,115.4,0C208.1,350.8,208.1,337.3,208.1,323.4z M270.8,135.2c-38.4,0-76.5,0-114.6,0c0,14,0,27.7,0,41.4
	c38.3,0,76.4,0,114.6,0C270.8,162.7,270.8,149.1,270.8,135.2z M343.9,197.9c-38.4,0-76.6,0-114.7,0c0,13.9,0,27.6,0,41.4
	c38.3,0,76.4,0,114.7,0C343.9,225.5,343.9,211.8,343.9,197.9z M156,302c38.4,0,76.6,0,114.6,0c0-14,0-27.7,0-41.4
	c-38.3,0-76.4,0-114.6,0C156,274.4,156,288.1,156,302z M229.2,364.7c38.4,0,76.5,0,114.6,0c0-14,0-27.7,0-41.4
	c-38.3,0-76.4,0-114.6,0C229.2,337.2,229.2,350.8,229.2,364.7z"/>
</svg>
