<?xml version="1.0" encoding="utf-8"?>
<!-- Generator: Adobe Illustrator 26.0.2, SVG Export Plug-In . SVG Version: 6.00 Build 0)  -->
<svg version="1.1" id="Layer_1" xmlns="http://www.w3.org/2000/svg" xmlns:xlink="http://www.w3.org/1999/xlink" x="0px" y="0px"
	 viewBox="0 0 500 500" style="enable-background:new 0 0 500 500;" xml:space="preserve">
<style type="text/css">
	.st0{fill:#E93842;}
	.st1{fill:#FFFFFF;}
</style>
<circle class="st0" cx="250" cy="250" r="250"/>
<path class="st1" d="M407.6,112.5c0-6.2-4.8-11-11.3-11.2c-0.4,0-0.9,0-1.3,0c-0.3,0-0.7,0-1,0c-0.3,0-0.7,0-0.9,0h-0.7H341h-51.5
	c-57.4,0-119.5,0-182.8-0.1c-4.9,0-11,0.9-14.2,8l-0.2,0.4v0.4v44.4v0.4l0.2,0.4c2.4,5.5,6.7,8.1,13.1,8.1c0.4,0,0.8,0,1.2,0v1.9
	v46.4c0,62.5,0,127.1-0.1,190.7c0,4.9,0.9,11,8,14.2l0.4,0.2h0.4h268.7h0.4l0.4-0.2c7.1-3.3,8-9.3,8-14.2
	c-0.1-63.4-0.1-128.1-0.1-190.4v-46.4v-2.1c0.4,0,0.8,0,1.2,0c0.7,0,1.3,0,2,0c6.6-0.2,11.4-4.9,11.4-11.4
	C407.7,138.1,407.7,125.2,407.6,112.5z M330.9,367.8V394H169.2v-26.2H330.9z M340.7,345.1h-1.3H339V344c0-6.4,0-12.8,0-19.2
	c0-13.9,0-28.4,0-42.5c0.2-36.1-17-62.1-51.3-77.6c-11.9-5.4-24.7-8-37.8-8c-27.2,0-52.7,11.4-70.2,31.4
	c-12.5,14.4-18.8,31.1-19,50.1c0,15.2,0,30.7,0,45.6c0,6.6,0,13.1,0,19.7v1.6h-0.7c-0.5,0-1.1,0-1.6,0c-7.6,0.1-12.2,4.7-12.3,12.2
	c0,8.3,0,16.8,0,25.1v10.4v1.3h-16.8V163.7h0.2h240.7v230.4h-16.7v-10.3V376c0-6,0-12.1,0-18C353.7,349.6,349.2,345.1,340.7,345.1z
	 M231.2,317c1.2-3,2.2-5.9,3.2-9.1c0-0.1,0.1-0.3,0.1-0.4c0.5,0.8,1.1,1.4,1.8,2.2c2.3,3,5.4,4.5,8.8,4.5c0.8,0,1.4-0.1,2.2-0.2
	c4.4-0.9,7.5-3.6,8.8-7.9c1.5-5,3.1-10.1,4.6-15.2l0.2-0.7c0.5,1.4,1.1,3,1.6,4.4c2.1,5.7,4.4,11.6,6.2,17.4
	c2.2,6.6,2.4,12.4,0.9,17.9c-2.6,9.1-10.4,15.1-19.3,15.1c-0.2,0-0.3,0-0.5,0c-8.9-0.2-17.2-7.5-19.4-16.8
	C229.5,324.3,229.7,320.7,231.2,317z M316.4,324.4V344v0.8h-28.6c0.2-0.8,0.5-1.5,0.8-2.2c1.3-3.8,2.7-7.9,3.6-12.1
	c1.6-8.3,0.9-17.1-2.3-26c-4.6-12.9-9.3-26-13.9-38.6c-1.8-4.7-3.5-9.4-5.2-14.1c-2.6-7.3-7.6-8.9-11.1-8.9c-0.2,0-0.3,0-0.5,0
	c-3.6,0.1-8.4,2-10.7,9.5c-2.1,6.8-4.1,13.6-6.2,20.6l-1.5,5c-0.2-0.3-0.4-0.5-0.7-0.9c-2.5-3.4-5.7-5.2-9.3-5.2c-0.7,0-1.3,0-2,0.1
	c-4.5,0.8-7.7,3.6-9.2,8.2c-1.2,3.6-2.5,7.3-3.7,11c-2.3,6.9-4.8,13.9-7,20.9c-3.3,10.5-2.1,21.4,3.8,32.4h-29v-0.1v-0.9
	c0-6.4,0-12.7,0-19.2c0-14.1,0.1-28.7-0.1-43.2c-0.1-12.4,2.7-23.2,8.4-32.3c5.6-8.8,14-16.1,25.1-21.9c10-5.1,21.4-7.9,32.9-7.9
	c19.6,0,38.2,7.7,51.1,21.1c10.3,10.7,15.5,23.7,15.5,38.2C316.4,294,316.4,309.2,316.4,324.4z M385.2,124.1v16.5H115.1v-16.5H385.2
	z"/>
</svg>
