<?xml version="1.0" encoding="utf-8"?>
<!-- Generator: Adobe Illustrator 26.0.2, SVG Export Plug-In . SVG Version: 6.00 Build 0)  -->
<svg version="1.1" id="Layer_1" xmlns="http://www.w3.org/2000/svg" xmlns:xlink="http://www.w3.org/1999/xlink" x="0px" y="0px"
	 viewBox="0 0 500 500" style="enable-background:new 0 0 500 500;" xml:space="preserve">
<style type="text/css">
	.st0{fill:#E93842;}
	.st1{fill:#FFFFFF;}
</style>
<circle class="st0" cx="250" cy="250" r="250"/>
<g>
	<path class="st1" d="M260,422.5c-6.7,0-13.5,0-20.2,0c-5.8-0.7-11.6-1.2-17.3-2.2c-36-6-67.4-21.5-93.2-47.3
		c-38.8-38.7-55.8-85.8-50.9-140.3c3.3-36.6,17.6-68.9,42.1-96.4c32.5-36.5,73.4-56.1,122.2-58.5c34-1.7,66,6.3,95.1,24
		c44.8,27.3,72.2,66.9,81.9,118.5c1.2,6.5,1.8,13.1,2.7,19.6c0,6.7,0,13.5,0,20.2c-0.3,2.4-0.6,4.8-0.8,7.3
		c-4.1,37.1-18.3,69.9-43.3,97.6c-26.6,29.5-59.5,47.9-98.6,54.8C273.2,421,266.6,421.6,260,422.5z M392.6,263.7
		c-41.5-4.3-77.1-20.8-106.4-50.1c-29.3-29.3-45.7-65-50-106.6c-38.2,4.2-69.9,20.5-95,49.4c-19.9,22.9-31.1,49.6-34.2,79.9
		c41.7,4.3,77.4,20.8,106.7,50.1c29.3,29.3,45.7,65,49.9,106.2C327.7,388.6,387.5,332.7,392.6,263.7z M107.4,265.7
		c6.5,69.6,66.1,122.2,126.9,126.7C228.4,324.1,169.1,270.1,107.4,265.7z M392.6,234.4c-8.1-73.1-68.2-121.9-127.1-126.9
		C270.6,171.9,326.8,229.1,392.6,234.4z"/>
</g>
</svg>
