<?xml version="1.0" encoding="utf-8"?>
<!-- Generator: Adobe Illustrator 26.0.2, SVG Export Plug-In . SVG Version: 6.00 Build 0)  -->
<svg version="1.1" id="Layer_1" xmlns="http://www.w3.org/2000/svg" xmlns:xlink="http://www.w3.org/1999/xlink" x="0px" y="0px"
	 viewBox="0 0 500 500" style="enable-background:new 0 0 500 500;" xml:space="preserve">
<style type="text/css">
	.st0{fill:#E93842;}
	.st1{fill:#FFFFFF;}
</style>
<circle class="st0" cx="250" cy="250" r="250"/>
<g>
	<path class="st1" d="M376.1,227.8c-0.5,26.8-9.4,52.9-27.6,75.7c-21.5,27-43.1,54-64.7,81c-18.2,22.7-49.4,22.7-67.6,0
		c-22-27.5-44.2-54.9-65.9-82.7c-20-25.6-29.1-55-25.7-87.4c5.4-52.1,33.1-88.5,81.7-107.6c67.7-26.5,145.2,13.1,165,83.1
		C374.5,201.6,376.1,213.4,376.1,227.8z M348.2,222.2c-0.4-3.3-0.7-9.6-1.9-15.8c-11.5-57.5-67.6-91.5-124.2-75.6
		c-65.2,18.4-91.9,99.8-50.2,153.1c22,28.1,44.5,55.9,66.9,83.7c1.7,2.1,4.2,3.8,6.7,4.8c5.8,2.3,11.7,0.3,16.1-5.2
		c21.7-27.2,43.5-54.3,65.2-81.5C340.9,268.1,347.8,247.8,348.2,222.2z"/>
	<path class="st1" d="M250.1,154.8c38.7,0,70.1,31.6,70,70.3c-0.1,38.5-31.6,69.8-70.2,69.8c-38.7,0-70.1-31.6-70-70.3
		C180,186.1,211.5,154.8,250.1,154.8z M208,224.9c0,23.1,19.1,42,42.2,42c23-0.1,41.8-19,41.9-41.9c0-23.2-18.9-42.1-42-42.1
		C226.9,182.8,207.9,201.8,208,224.9z"/>
</g>
</svg>
