<?xml version="1.0" encoding="utf-8"?>
<!-- Generator: Adobe Illustrator 26.0.2, SVG Export Plug-In . SVG Version: 6.00 Build 0)  -->
<svg version="1.1" id="Layer_1" xmlns="http://www.w3.org/2000/svg" xmlns:xlink="http://www.w3.org/1999/xlink" x="0px" y="0px"
	 viewBox="0 0 500 500" style="enable-background:new 0 0 500 500;" xml:space="preserve">
<style type="text/css">
	.st0{fill:#E93842;}
	.st1{fill:#FFFFFF;}
</style>
<circle class="st0" cx="250" cy="250" r="250"/>
<g>
	<g>
		<path class="st1" d="M412.5,408.1c-0.8,0-1.7-0.1-2.6-0.2c-15.7-0.1-32.4-0.1-51-0.1c-26,0-52.4,0.1-77.9,0.1
			c-25.5,0.1-51.9,0.1-77.9,0.1c-44.8,0-81.3-0.2-114.9-0.5c-6-1.1-8.8-6.7-8.9-11.9c-0.1-5.1,2.5-10.9,8.5-12.1
			c4.3-0.5,9-0.8,14.8-0.8c2.9,0,6,0.1,8.9,0.1c3,0.1,6,0.1,9.1,0.1c1.7,0,3.3,0,4.9-0.1c0-3.9,0-7.7,0-11.5
			c0.1-5.7,0.1-11-0.1-16.6c-0.1-0.9-1.1-2.2-1.9-2.4c-26.9-7.1-43.3-24.8-48.6-52.6c-2.4-12.4-0.8-24.9,4.8-37.2
			c1.1-2.3,1-3.8-0.1-6.1c-9.8-19.6-4.8-30.1,2.9-46.1c0.9-1.9,1.8-3.8,2.8-5.9c4.4-26.8,26.3-45.5,53.4-45.5c0.6,0,1.1,0,1.7,0
			c0.3,0,0.6,0,0.9,0c4.9,0,8-3,8.5-8.3c1.5-17.6,9.4-32.6,22.7-43.6c12.2-10,27.8-15.5,44-15.5c25,0,46.6,13.3,57.8,35.5
			c3.9,7.5,6.5,15.7,7.7,24.5c15.7,24.4,17.5,45.7,5.4,64.9c-0.9,1.6-1.5,2.7-0.5,4.6c12.1,22.3,12.6,49.6,1.2,73.1
			c-11.4,23.5-32.5,39.1-59.6,44v43.5h119.8c0-1.5,0-2.9,0-4.4c0-4.8,0-9.8-0.1-14.7c0-0.4-1.1-1.4-2-1.6
			c-14.3-3.8-26.4-13.8-33.1-27.7c-7.1-14.5-7.6-31-1.4-45.4c0.5-1.3,0.5-3.1,0-4.3c-7.4-15.2-3.1-25.2,2.4-37.8
			c0.9-2.1,1.9-4.3,2.8-6.5c7-25.9,26.9-35.1,43.1-35.1c10.7,0,21.1,3.8,29.4,10.6c9,7.5,14.9,18.1,17,30.6
			c7.5,11.5,8.5,23.5,3.1,36.8c-0.6,1.4-1,3.7-0.3,5.1c6.5,14.8,6.2,31.4-0.8,45.8c-6.9,14-19.2,24-34.8,28.1v20.5h39.6
			c9.7,0,13.1,6.5,13.1,12C426.3,400.9,421.1,408.1,412.5,408.1C412.5,408.1,412.5,408.1,412.5,408.1z M150.6,379.9
			c0,1.8,0.8,1.9,2.3,1.9l50.3,0v-43.2c-1.7-0.5-3.4-1-5.1-1.4c-3.6-1-7-1.9-10.4-3.1c-0.8-0.3-1.5-0.4-2-0.4
			c-1.1,0-1.9,0.4-3.1,1.5c-8.3,8-18.8,13.4-32,16.5V379.9z M360.9,229.9c-1.1,0-2.3,0.1-3.5,0.2c-11.9,2.2-13.6,8.9-15.8,17.3
			c-0.8,3.3-1.7,6.6-3.2,10.1c0,0,0,0.1-0.1,0.1c-8.2,9.4-4.8,14.1-1.1,19.2c3.1,4.3,6.2,8.7,1.1,15.7c-3.8,5.5-5.6,11.2-5.6,17.2
			c1.2,13.8,9,28.5,27.3,28.5c11,0,21.7-6,26.7-14.9c5-8.8,4.1-19.6-2.5-30.5c-4.9-6.3-1.7-11.4,1.3-16.4c3-4.8,5.7-9.3,1.3-15
			c-3.6-4.5-4.7-9.7-5.5-14.7C379.6,235.1,369.8,229.9,360.9,229.9z M135.8,184.2c-13.3,0.4-25.6,12.5-26.6,26.2
			c-0.5,5.5-2.1,9.6-5.2,13.1c-6.5,7-6.6,16.1-0.4,23.8c6.3,7.7,6.6,11,1.4,19.7c-8.1,12.9-8.7,27.5-1.7,40.3
			c7.1,13,20.8,21.3,34.8,21.3c0,0,0,0,0,0c8.3,0,16.5-3,23.6-8.5c-28.3-26.5-35-64.9-17.5-100.4c0-2.2-1.3-4.4-2.7-6.8
			c-0.7-1.2-1.4-2.4-1.9-3.6C136.5,202.1,135.3,194.1,135.8,184.2z M217.6,116.7c-18.8,0-40.1,13-42.6,37c-0.6,7-3,12.7-7.3,17.9
			c-9,10.6-8.5,26.3,1.2,36.6c6.1,6.6,6.4,11,1.5,18.9c-12.1,16.6-13.6,37.8-4,56.7c9.8,19.2,28.8,31.1,49.6,31.1c0,0,0.7,0,0.7,0
			c20.4,0,39-12,48.7-31.2c9.8-19.4,8.3-41.7-3.9-58.2c-4.2-6.3-3.9-11.1,0.9-16.9c11.1-11.9,11.7-27.9,1.5-38
			c-5.2-5-6.4-11.8-7.5-18.4c-0.7-3.9-1.4-8-2.9-11.6C247.4,125.7,234,116.7,217.6,116.7z"/>
		<path class="st1" d="M216.5,92.4c22.6,0,45.2,11,57.3,35.2c4,7.7,6.5,15.9,7.7,24.5c13.1,20.4,19.4,42.3,5.5,64.5
			c-1,1.7-1.6,3-0.5,5.1c23.5,43.4,1.9,105.8-58.4,116.4c0,14.8,0,29.4,0,44.4c40.2,0,80.2,0,120.8,0c0-6.5,0.1-13.1-0.1-19.6
			c0-0.7-1.4-1.8-2.4-2.1c-30.8-8.1-46.6-43.6-34.2-72.4c0.6-1.4,0.6-3.4,0-4.7c-8.5-17.5-1.3-28,5.2-43.9
			c6.4-23.6,24.4-34.8,42.7-34.8c20.7,0,41.5,14.3,45.9,40.9c7.6,11.6,8.3,23.7,3.1,36.4c-0.7,1.6-1,4-0.3,5.5
			c12.7,29-1.6,64.6-35.7,73.3c0,7,0,14,0,21.4c2.8,0,5.7,0,8.5,0c7.7,0,15.5,0,23.2,0c2.8,0,5.6,0,8.4,0c18.5,0,15.1,25.2-0.7,25.2
			c-0.8,0-1.6-0.1-2.5-0.2c-17-0.1-34-0.1-51-0.1c-52,0-103.9,0.2-155.9,0.2c-38.3,0-76.6-0.1-114.9-0.5c-10.9-1.9-11.3-20.7-0.3-23
			c4.9-0.6,9.8-0.8,14.7-0.8c5.9,0,11.9,0.2,18,0.2c1.8,0,3.6,0,5.4-0.1c-0.1-9.8,0.3-19-0.1-28.6c-0.1-1.1-1.3-2.6-2.3-2.9
			c-27.2-7.2-43-24.9-48.3-52.2c-2.5-12.7-0.6-25.1,4.8-36.9c1.1-2.4,1.1-4.1-0.1-6.5c-10.8-21.6-3.3-32.2,5.7-51.6
			c4.3-26.5,26.3-45.1,52.9-45.1c0.6,0,1.1,0,1.7,0c0.3,0,0.6,0,0.9,0c5.1,0,8.4-3.2,9-8.7C153.5,113.8,185,92.4,216.5,92.4
			 M216.1,315.4c0.2,0,0.5,0,0.7,0c44.5,0,71.8-54.2,45.2-90.2c-4-6.1-3.8-10.6,0.9-16.3c10.8-11.6,12.3-28,1.5-38.7
			c-8.2-7.9-6.1-20-10.3-29.8c-6.9-16.7-21.6-24.2-36.4-24.2c-20.1,0-40.7,13.8-43,37.4c-0.6,6.7-2.8,12.4-7.2,17.6
			c-9.2,10.8-8.5,27,1.2,37.3c6,6.5,6.2,10.7,1.4,18.3C143.5,263.2,171.5,315.4,216.1,315.4 M136.3,183.6
			c-13.8,0.1-26.6,12.6-27.6,26.7c-0.4,4.9-1.7,9-5.1,12.8c-6.8,7.3-6.6,16.8-0.4,24.4c6.2,7.5,6.4,10.6,1.4,19.1
			c-18.8,29.7,5.5,62.4,33.6,62.4c8.1,0,16.6-2.7,24.4-9c-28.9-26.9-35.1-65.3-17.8-100.3c0-3.6-3.1-7.1-4.7-10.7
			C136.6,201,135.8,192.5,136.3,183.6 M360,338.7c20,0,40.8-19.5,24.6-46.1c-9.3-12.1,12-19.6,2.6-31.4c-3.4-4.3-4.6-9.2-5.4-14.5
			c-1.7-11.4-11-17.4-20.9-17.4c-1.2,0-2.3,0.1-3.5,0.3c-16.9,3.2-13.9,15-19.4,27.7c-15.7,18,10.6,20.3-0.1,34.9
			c-3.6,5.3-5.7,11-5.7,17.5C333.9,330.3,346.8,338.7,360,338.7 M152.9,382.3c0.1,0,0.2,0,0.4,0c3.6,0,7.1,0,10.7,0
			c9.7,0,19.2,0,28.9,0c3.6,0,7.2,0,10.8,0c0-15.1,0-29.8,0-44.1c-5.5-1.6-10.7-2.8-15.8-4.6c-0.8-0.3-1.5-0.4-2.2-0.4
			c-1.2,0-2.2,0.5-3.4,1.6c-9,8.7-20.1,13.7-32.2,16.5c0,9.7,0,19.1,0,28.6C150.1,382.3,151.4,382.3,152.9,382.3 M216.5,91.4v1V91.4
			c-16.3,0-32.1,5.5-44.4,15.6c-13.4,11-21.4,26.2-22.9,43.9c-0.5,5-3.4,7.8-8,7.8c-0.3,0-0.5,0-0.8,0c-0.6,0-1.2,0-1.8,0
			c-13.1,0-25.7,4.6-35.5,12.9c-9.7,8.3-16.3,20-18.4,33c-0.9,2-1.9,3.9-2.7,5.8c-7.7,16.1-12.8,26.8-2.9,46.5
			c1.1,2.1,1.1,3.5,0.1,5.6c-5.7,12.4-7.3,25-4.9,37.5c5.4,28,21.9,45.8,49,53c0.6,0.2,1.5,1.3,1.6,2c0.2,5.6,0.2,10.9,0.1,16.6
			c0,3.6-0.1,7.2,0,11c-1.4,0-2.8,0-4.3,0c-3.1,0-6.1-0.1-9.1-0.1c-2.9-0.1-5.9-0.1-8.9-0.1c-5.8,0-10.5,0.2-14.9,0.8
			c0,0-0.1,0-0.1,0c-6.2,1.3-9,7.3-8.9,12.6c0.1,5.4,3,11.3,9.2,12.4c0.1,0,0.1,0,0.2,0c33.6,0.4,70.2,0.5,114.9,0.5
			c26,0,52.4-0.1,77.9-0.1c25.5-0.1,52-0.1,77.9-0.1c18.6,0,35.2,0,50.9,0.1c0.9,0.1,1.7,0.2,2.6,0.2c9,0,14.3-7.5,14.3-14.7
			c0-5.8-3.6-12.5-13.6-12.5l-8.4,0l-11.6,0l-11.6,0l-7.5,0v-19.6c15.6-4.2,27.9-14.2,34.8-28.3c7.1-14.5,7.4-31.3,0.9-46.2
			c-0.6-1.2-0.3-3.3,0.3-4.7c5.4-13.2,4.4-25.7-3.1-37.2c-2.1-12.6-8.1-23.3-17.2-30.8c-8.3-6.9-18.9-10.7-29.7-10.7
			c-16.5,0-36.6,9.3-43.6,35.5c-0.9,2.3-1.9,4.4-2.8,6.5c-5.5,12.7-9.9,22.8-2.4,38.2c0.5,1,0.5,2.7,0,3.9
			c-6.2,14.5-5.7,31.2,1.4,45.8c6.8,14,19,24.1,33.4,27.9c0.7,0.2,1.5,0.9,1.7,1.2c0.1,4.9,0.1,9.8,0.1,14.6c0,1.3,0,2.6,0,3.9
			H229.1v-42.6c27-5,48.2-20.7,59.5-44.2c5.5-11.4,8.3-24.2,8.2-36.9c-0.2-12.9-3.4-25.6-9.4-36.6c-0.8-1.6-0.5-2.5,0.5-4.1
			c6.6-10.5,9.1-21.8,7.5-33.6c-1.4-10-5.6-20.4-12.9-31.8c-1.3-8.8-3.9-17.1-7.8-24.6c-5.9-11.7-14.4-20.8-25.1-27.1
			C239.7,94.4,228.3,91.4,216.5,91.4L216.5,91.4z M216.1,314.4c-20.6,0-39.5-11.8-49.2-30.8c-9.5-18.7-8.1-39.7,3.9-56.2
			c0,0,0,0,0-0.1c5.1-8,4.7-12.8-1.5-19.5c-4.6-4.8-7.2-11.2-7.4-17.8c-0.2-6.7,2-13.1,6.2-18.2c4.4-5.2,6.8-11,7.4-18.2
			c1.1-10.8,6.1-20.1,14.5-26.9c7.7-6.2,17.5-9.6,27.6-9.6c16.1,0,29.4,8.8,35.5,23.6c1.5,3.6,2.2,7.6,2.9,11.5
			c1.1,6.6,2.3,13.5,7.6,18.6c10,9.9,9.3,25.6-1.5,37.3c0,0,0,0,0,0c-5,6-5.3,10.9-1,17.5c0,0,0,0,0,0c12.1,16.4,13.6,38.5,3.9,57.7
			c-4.6,9-11.2,16.7-19.3,22.1c-8.6,5.8-18.6,8.8-29,8.8C216.5,314.4,216.3,314.4,216.1,314.4L216.1,314.4z M138.2,328
			c-13.8,0-27.3-8.3-34.4-21.1c-7-12.6-6.4-27.1,1.6-39.8c5.2-8.9,5-12.5-1.5-20.3c-6.1-7.5-5.9-16.3,0.4-23.1
			c3.3-3.6,4.9-7.8,5.4-13.4c0.9-13.3,12.7-25,25.6-25.7c-0.4,9.8,0.8,17.7,3.9,24.8c0.6,1.2,1.3,2.5,2,3.6c1.3,2.2,2.6,4.4,2.6,6.4
			C126.4,255,133,293.3,161.1,320C154.1,325.3,146.3,328,138.2,328L138.2,328z M333.2,309.7c0-5.9,1.8-11.4,5.5-16.9
			c5.4-7.3,1.9-12-1.1-16.2c-3.5-4.9-6.8-9.5,1.1-18.6c0.1-0.1,0.1-0.2,0.2-0.3c1.5-3.5,2.4-6.9,3.2-10.2
			c2.2-8.6,3.8-14.7,15.4-16.9c1.1-0.2,2.2-0.2,3.3-0.2c8.7,0,18.2,5.1,19.9,16.5c0.8,5.1,2,10.4,5.6,15c4.2,5.3,1.7,9.5-1.3,14.4
			c-3,4.8-6.4,10.3-1.3,17c6.5,10.7,7.3,21.3,2.5,29.9c-4.9,8.7-15.5,14.6-26.3,14.6C342,337.7,334.4,323.3,333.2,309.7L333.2,309.7
			z M151.1,352.1c13.2-3.2,23.6-8.6,31.9-16.6c1-1,1.8-1.3,2.7-1.3c0.5,0,1.1,0.1,1.9,0.4c3.4,1.2,6.8,2.1,10.4,3.1
			c1.5,0.4,3.1,0.8,4.7,1.3v42.3l-9.8,0l-14.5,0l-14.4,0l-10.7,0l-0.2,0l-0.2,0c-1.5,0-1.8,0-1.8-1.4V352.1L151.1,352.1z"/>
	</g>
</g>
</svg>
