<?xml version="1.0" encoding="utf-8"?>
<!-- Generator: Adobe Illustrator 26.0.2, SVG Export Plug-In . SVG Version: 6.00 Build 0)  -->
<svg version="1.1" id="Layer_1" xmlns="http://www.w3.org/2000/svg" xmlns:xlink="http://www.w3.org/1999/xlink" x="0px" y="0px"
	 viewBox="0 0 500 500" style="enable-background:new 0 0 500 500;" xml:space="preserve">
<style type="text/css">
	.st0{fill:#E93842;}
	.st1{fill:#FFFFFF;}
	.st2{fill:#FFFFFF;stroke:#000000;stroke-miterlimit:10;}
</style>
<circle class="st0" cx="250" cy="250" r="250"/>
<g>
	<path class="st1" d="M250,119.5c72.1,0,130.5,58.5,130.5,130.6c-0.1,72.1-58.7,130.5-130.6,130.4c-72.1-0.2-130.5-58.7-130.4-130.7
		C119.7,177.8,178.1,119.5,250,119.5z M250,141.3c-60,0.1-108.7,48.9-108.7,108.8S190.1,358.7,250,358.8c60,0,108.9-49,108.9-108.9
		C358.7,189.9,309.8,141.2,250,141.3z"/>
	<path class="st1" d="M242.2,270c0,1.3,0,2.3,0,3.2c0,10.3,0,20.6,0,30.9c0,6.7-5.2,11.9-11.5,12c-6.3,0.1-11.4-4.9-11.7-11.5
		c0-0.7,0-1.4,0-2c0-31.5,0-63,0-94.5c0-8.4,4-12.5,12.4-12.4c10.6,0.1,21.1-0.2,31.8,0.4c5.6,0.3,11.4,1.4,16.8,3.1
		c10.8,3.3,17.5,10.9,20,21.9c1.7,7.8,1.9,15.7,0.1,23.5c-3.2,13.5-12.2,21.1-25.5,23.6c-6.5,1.2-13.3,1.4-19.9,1.8
		C250.6,270.2,246.6,270,242.2,270z M242.3,249.6c7.4,0,14.6,0.5,21.8-0.1c8-0.6,12.1-4.5,13.3-12.5c2-13-2.3-19.6-14.3-21.1
		c-6.7-0.8-13.5-0.5-20.2-0.5c-0.2,0-0.2,0.2-0.5,0.4C242.3,226.9,242.3,238.3,242.3,249.6z"/>
</g>
</svg>
