<?xml version="1.0" encoding="utf-8"?>
<!-- Generator: Adobe Illustrator 26.0.2, SVG Export Plug-In . SVG Version: 6.00 Build 0)  -->
<svg version="1.1" id="Layer_1" xmlns="http://www.w3.org/2000/svg" xmlns:xlink="http://www.w3.org/1999/xlink" x="0px" y="0px"
	 viewBox="0 0 500 500" style="enable-background:new 0 0 500 500;" xml:space="preserve">
<style type="text/css">
	.st0{fill:#E93842;}
	.st1{fill:#FFFFFF;}
</style>
<circle class="st0" cx="250" cy="250" r="250"/>
<g>
	<path class="st1" d="M67.1,319.6c7.8,0,15.4,2,23.8,6.3c12.3,6.2,24.7,9.3,37,9.3c12.7,0,25.4-3.3,38-9.8
		c7.7-3.9,15.4-5.9,23.1-5.9s15.4,2,23.1,5.9c12.6,6.4,25.4,9.7,38.1,9.7c12.6,0,25.4-3.3,38.1-9.7c7.8-4,15.7-6,23.4-6
		c7.7,0,15.5,2.1,23.1,6.1c11.4,6.1,23.8,9.1,37.9,9.4c0,0,0,0,0.1,0c0,0,0.1,0,0.1,0c14.4-0.3,26.4-3.2,36.8-8.8
		c7.7-4.3,15.3-6.3,23.2-6.3c4.8,0,9.2-1.7,12.1-4.7c2.8-2.8,4.3-6.7,4.2-11c-0.2-9.1-6.9-15.2-16.7-15.2c-12.5,0-24.6,3.1-37,9.6
		c-7.5,3.9-15.2,5.9-22.8,5.9c-7.8,0-15.7-2.1-23.7-6.2c-2.9-1.5-5.8-2.8-8.8-4c-0.1-47.3-0.1-103.4,0-150.5c0.2-3.3,0.6-5.9,1.5-8
		c2.2-5.6,7.8-9.3,14-9.3c0.9,0,1.8,0.1,2.7,0.3c7.6,1.4,12.7,7.5,13.1,15.4c0.3,9.5,7.2,16.4,16.3,16.4c0.2,0,0.4,0,0.7,0
		c9.1-0.3,15.8-7.8,15.6-17.3c0-3.5-0.6-6.7-1-9.2c0,0,0,0,0-0.1c-5-22.2-24.6-38.3-46.7-38.3c-1.7,0-3.4,0.1-5.1,0.3
		c-25.1,2.8-43.5,23.3-43.6,48.6v34.8v0.5H193.6v-34.3c0-1.4,0-2.7,0.2-3.8c1.5-7.7,7.7-13.1,15.3-13.1c0.5,0,0.9,0,1.4,0.1
		c8,0.6,14,7.1,14.4,15.4c0.5,9.8,7.3,16.6,16.4,16.6c0.1,0,0.2,0,0.3,0c9.3-0.2,16.1-7.7,15.9-17.5c-0.1-12.1-5.1-23.7-13.9-32.7
		c-8.8-9-20.4-14.1-32.5-14.5c-0.5,0-1,0-1.4,0c-27.4,0-48.8,21.5-48.8,48.9v150.9c-2.9,1.1-5.8,2.4-8.6,3.9
		c-8.4,4.2-16.7,6.4-24.7,6.4c-7.8,0-15.7-2.1-23.5-6.1c-11.5-6.1-23.8-9.1-36.6-9.1c-9.1,0-15.9,6.3-16.2,14.9
		c-0.2,4.2,1.3,8.2,4.2,11.1C58.4,317.9,62.5,319.6,67.1,319.6z M193.6,237.8v-27h113.5v27H193.6z M193.5,277.7c0-2.8,0-5.2,0-6.9
		h114c0,1.5,0,3.2,0,5c0,4.1,0,8.8,0,12.9c-11.1,0.6-22.2,3.7-33.2,9.2c-8.2,4.1-16,6.1-24,6.1c-8.1,0-16-2-24.3-6.2
		c-10.7-5.5-21.6-8.6-32.4-9.2C193.5,285,193.5,281.1,193.5,277.7z"/>
	<path class="st1" d="M432.5,342.2c-12.4,0-24.6,3.2-37.3,9.7c-7.4,3.8-15,5.7-22.5,5.7c-7.7,0-15.5-2-23.4-6
		c-12.5-6.4-25.3-9.7-37.9-9.7c-12.5,0-25.1,3.2-37.5,9.4c-7.9,4-15.8,6.1-23.6,6.1c-8,0-16.1-2.1-24.3-6.3
		c-12.2-6.2-24.6-9.3-37-9.3c-12.3,0-24.6,3.1-36.7,9.2c-8.4,4.2-16.7,6.4-24.8,6.4c-7.8,0-15.7-2.1-23.5-6.1
		c-11.7-6.1-24-9.3-36.6-9.3c-9.2,0-16.2,6.6-16.2,15.4c0,8.6,6.9,15.4,15.7,15.4c7.8,0,15.2,1.9,23.5,6c12.3,6.2,24.9,9.4,37.3,9.4
		c12.7,0,25.7-3.3,38.4-9.8c7.5-3.9,15.1-5.8,22.6-5.8c7.6,0,15.4,2,23.2,5.9c12.7,6.5,25.5,9.7,38.2,9.7c12.6,0,25.3-3.2,37.9-9.6
		c7.9-4,15.8-6,23.4-6c7.7,0,15.5,2,23,6.1c11.5,6.2,24.4,9.4,38.1,9.5c0,0,0,0,0,0c0,0,0.1,0,0.1,0c14.1-0.3,26.3-3.2,37-8.9
		c0,0,0.1,0,0.1,0c7.4-4.2,14.9-6.2,22.8-6.2c4.8,0,9.2-1.7,12.1-4.7c2.8-2.8,4.3-6.7,4.2-11C449,348.5,442.2,342.2,432.5,342.2z"/>
</g>
</svg>
