<?xml version="1.0" encoding="utf-8"?>
<!-- Generator: Adobe Illustrator 26.0.2, SVG Export Plug-In . SVG Version: 6.00 Build 0)  -->
<svg version="1.1" id="Layer_1" xmlns="http://www.w3.org/2000/svg" xmlns:xlink="http://www.w3.org/1999/xlink" x="0px" y="0px"
	 viewBox="0 0 500 500" style="enable-background:new 0 0 500 500;" xml:space="preserve">
<style type="text/css">
	.st0{fill:#E93842;}
	.st1{fill:#FFFFFF;}
</style>
<circle class="st0" cx="250" cy="250" r="250"/>
<g>
	<path class="st1" d="M320.3,176.8c-8.4-6.5-20.4-4.9-26.9,3.5l-70,90.7l-18.6-18.6c-7.5-7.5-19.6-7.5-27.1,0
		c-7.5,7.5-7.5,19.6,0,27.1l34,34c3.6,3.6,8.5,5.6,13.5,5.6c0.4,0,0.8,0,1.2,0c5.5-0.4,10.6-3.1,13.9-7.4l83.3-107.9
		C330.2,195.2,328.7,183.2,320.3,176.8z"/>
	<path class="st1" d="M361,122.1C361,122.1,361,122.1,361,122.1c-37-5.2-65.4-20.6-82.7-32.7c-8.2-5.7-17.8-8.7-27.9-8.7
		c-10.3,0-20.1,3.1-28.5,9.1c-16.8,12-44.8,27.4-82.8,32.4c-24,3.2-42.1,23.9-42.1,48.3v21c0,169.4,106,215.5,138.5,225.6
		c4.7,1.5,9.6,2.2,14.5,2.2c4.9,0,9.8-0.7,14.5-2.2C297,407,402.9,360.9,402.9,191.5v-21.1C402.9,146.2,384.9,125.4,361,122.1z
		 M369.4,170.4v21.1c0,63.2-16,113.4-47.6,149.2c-24.8,28.2-52.9,39.9-67.3,44.4c-1.5,0.5-3,0.7-4.5,0.7c-1.5,0-3-0.2-4.5-0.7
		c-14.5-4.5-42.5-16.3-67.3-44.4c-31.6-35.8-47.6-86-47.6-149.2v-21c0-7.6,5.6-14.1,13-15.1c44.8-5.9,77.9-24.1,97.8-38.3
		c2.6-1.9,5.7-2.9,9-2.9c3.1,0,6.2,0.9,8.7,2.7c20.3,14.2,53.7,32.3,97.2,38.4c0,0,0,0,0,0C363.8,156.3,369.4,162.8,369.4,170.4z"/>
</g>
</svg>
