<?xml version="1.0" encoding="utf-8"?>
<!-- Generator: Adobe Illustrator 26.0.2, SVG Export Plug-In . SVG Version: 6.00 Build 0)  -->
<svg version="1.1" id="Layer_1" xmlns="http://www.w3.org/2000/svg" xmlns:xlink="http://www.w3.org/1999/xlink" x="0px" y="0px"
	 viewBox="0 0 500 500" style="enable-background:new 0 0 500 500;" xml:space="preserve">
<style type="text/css">
	.st0{fill:#E93842;}
	.st1{fill:#FFFFFF;}
</style>
<circle class="st0" cx="250" cy="250" r="250"/>
<g>
	<path class="st1" d="M376.2,425.5c-84.1,0-168.2,0-252.3,0c-5.9-2.7-7.6-7.4-7.6-13.8c0.1-107.8,0.1-215.6,0-323.4
		c0-6.4,1.7-11.1,7.6-13.8c63.6,0,127.1,0,190.7,0c2.7,2.2,5.6,4.2,8.1,6.6c18.8,18.7,37.5,37.5,56.3,56.2c3.4,3.4,4.9,7.1,4.9,11.9
		c-0.1,87.5-0.1,175,0,262.6C383.8,418.1,382.1,422.8,376.2,425.5z M362.9,404.8c0-82.7,0-165.2,0-248c-1.4,0-2.6,0-3.9,0
		c-15.2,0-30.4,0-45.6,0c-8.1,0-12.1-4-12.1-12c0-15.3,0-30.7,0-45.9c0-1.3,0-2.4,0-3.6c-55,0-109.7,0-164.3,0
		c0,103.4,0,206.4,0,309.4C212.5,404.8,287.7,404.8,362.9,404.8z M346.6,136c-8-8.1-16.3-16.6-24.5-25c0,8,0,16.4,0,25
		C330.7,136,339.1,136,346.6,136z"/>
	<path class="st1" d="M250.1,327.7c-20,0-40.2,0-60.2,0c-11.4,0-17.8-6.2-17.8-17.6c0-27.8,0.2-55.7,0-83.5c0-7.8,3.1-12.9,9.8-16.9
		c19.5-11.4,39-23,58.5-34.5c6.4-3.8,12.4-4.1,19-0.2c19.8,11.7,39.7,23.3,59.4,34.9c6.2,3.6,9.1,8.8,9.1,16.2
		c-0.2,28.1,0,56.4,0,84.6c0,10.7-6.4,17.1-17.1,17.1C290.6,327.9,270.5,327.7,250.1,327.7z M234.6,296.5c0-6.6,0-12.6,0-18.6
		c0-10.5,6.4-17.6,15.7-17.4c9.3,0,15.4,7.1,15.5,17.8c0,6.2,0,12.3,0,18.3c10.7,0,20.7,0,30.7,0c0.2-0.7,0.3-1.2,0.3-1.7
		c0-19.5,0.2-39-0.2-58.7c0-1.7-1.9-4-3.5-4.8c-12.9-7.9-26.2-15.4-39.2-23.3c-2.9-1.9-5.2-1.6-7.9,0.2
		c-12.9,7.9-26.1,15.5-39.2,23.1c-2.6,1.6-3.6,3.1-3.5,6c0.2,15.4,0,30.7,0,46.1c0,4.3,0,8.5,0,12.9
		C214,296.5,223.9,296.5,234.6,296.5z"/>
</g>
</svg>
