<?xml version="1.0" encoding="utf-8"?>
<!-- Generator: Adobe Illustrator 26.0.2, SVG Export Plug-In . SVG Version: 6.00 Build 0)  -->
<svg version="1.1" id="Layer_1" xmlns="http://www.w3.org/2000/svg" xmlns:xlink="http://www.w3.org/1999/xlink" x="0px" y="0px"
	 viewBox="0 0 500 500" style="enable-background:new 0 0 500 500;" xml:space="preserve">
<style type="text/css">
	.st0{fill:#E93842;}
	.st1{fill:#FFFFFF;}
</style>
<circle class="st0" cx="250" cy="250" r="250"/>
<g>
	<path class="st1" d="M235.7,276.8c-13.3,0-26.3,0.3-39.4,0c-3.1,0-7.1-1.2-9-3.4c-0.9-1.2,0.9-5.9,2.5-8.4
		c23.9-34.7,47.7-69.1,71.6-103.5c1.9-2.5,5.3-3.7,8.1-5.6c1.2,3.4,3.7,6.8,3.4,9.6c-2.5,18.6-5.6,37.5-8.7,57.3c13,0,26-0.3,39.1,0
		c3.1,0,7.7,0.9,9.3,3.1c1.2,1.9-0.6,6.5-2.5,9.3c-23.6,34.4-47.1,68.8-71.3,102.9c-1.9,2.8-5.9,4-8.7,5.9
		c-0.9-3.4-3.1-6.8-2.8-10.2C229.5,314.9,232.6,296.3,235.7,276.8z"/>
</g>
<path class="st1" d="M250.1,77.8c95.1,0,172.2,77.2,172.1,172.3s-77.4,172.2-172.3,172c-95.1-0.2-172.2-77.4-172-172.4
	C78.2,154.7,155.2,77.8,250.1,77.8z M250,106.5C170.9,106.6,106.6,171,106.6,250S171,393.4,250.1,393.5
	c79.2,0,143.7-64.6,143.6-143.7C393.5,170.7,329,106.4,250,106.5z"/>
</svg>
