<?xml version="1.0" encoding="utf-8"?>
<!-- Generator: Adobe Illustrator 26.0.2, SVG Export Plug-In . SVG Version: 6.00 Build 0)  -->
<svg version="1.1" id="Layer_1" xmlns="http://www.w3.org/2000/svg" xmlns:xlink="http://www.w3.org/1999/xlink" x="0px" y="0px"
	 viewBox="0 0 500 500" style="enable-background:new 0 0 500 500;" xml:space="preserve">
<style type="text/css">
	.st0{fill:#E93842;}
	.st1{fill:#FFFFFF;}
</style>
<circle class="st0" cx="250" cy="250" r="250"/>
<g>
	<path class="st1" d="M446.2,306.7c-0.1-9.1-7.4-15.7-17.1-15.7c-12.4,0-24.2,3-36.3,9.3c-4.1,2.1-8.3,3.6-12.5,4.5
		c-3.7,0.8-7.4,1.2-10.9,1.2c-4.9,0-9.4-0.7-13.8-2.2c9.8-24.5,10.6-50.7,2.3-76c-7.6-23.3-22.9-44.4-41.9-58.2
		c-19-13.9-42.8-21.4-67-21.4l0,0c-22.6,0-44,6.4-62,18.4c-19.4,13-35.7,33.9-44.4,57.3c-7.1,18.8-12.4,47.6,0.7,80.3
		c-5.1,1.5-10.2,2.2-15,2.2c-7.4,0-14.6-1.9-21.3-5.3c-12.4-6.6-24.7-9.8-37.5-9.8c-0.2,0-0.5,0-0.7,0c-9,0.1-16,6.8-16.2,15.5
		c-0.1,4.3,1.6,8.4,4.5,11.6c2.9,3,6.8,4.6,11.1,4.6h0.5c8.8,0,16.6,2.9,25.5,7.2c11.6,5.6,23.3,8.3,35,8.3
		c11.8,0,23.5-2.9,34.8-8.6c8.7-4.4,16.9-6.6,25.1-6.6c8.2,0,16.3,2.1,25,6.5c11.6,5.8,23.5,8.8,35.3,8.8c12,0,24.1-3,35.9-9
		c8.4-4.3,16.4-6.4,24.5-6.4c8,0,16,2.1,24.2,6.3c11.8,5.9,24,8.9,36,8.9c12,0,24.2-3,36.2-8.9c8.9-4.5,16.2-6.5,23.4-6.5
		C439.1,322.8,446.2,316.1,446.2,306.7L446.2,306.7L446.2,306.7z M325.3,292.3c-5.2-0.9-10.4-1.5-15.5-1.5c-7.6,0-15.2,1.2-22.3,3.4
		c-5.8,1.6-11.1,4.2-16,6.5c-7.6,3.7-15.2,5.6-22.5,5.6c-7.1,0-14-1.7-20.7-5.2c-12.7-6.7-26-10.1-39.7-10.1c-5,0-10,0.5-15,1.4
		c-6.3-13.7-7.9-29.9-4.6-46c3.8-18.5,13.5-35,28.2-47.6c14.2-12.3,32.8-19,52.1-19c18.3,0,36.1,6.1,50.2,17.4
		c14.8,11.9,25.3,28.6,29.7,46.9C333.2,260.6,331.8,277.6,325.3,292.3z"/>
	<path class="st1" d="M69,375.6c7.6,0,14.9,2,23.1,6.1c12.2,6.1,24.5,9.3,36.8,9.3c12.6,0,25.2-3.2,37.7-9.7
		c7.4-3.8,15-5.8,22.5-5.8s14.9,2,22.5,5.8c12.5,6.4,25.2,9.6,37.8,9.6c12.6,0,25.2-3.2,37.8-9.6c7.6-3.9,15.3-5.9,22.7-5.9
		c7.5,0,15,2,22.5,5.9c11.3,6,23.6,9,37.6,9.4h0.1h0.1c14.1-0.2,26.2-3.1,36.6-8.8c7.5-4.2,14.9-6.1,22.6-6.1c5,0,9.4-1.7,12.4-4.9
		c2.9-2.9,4.4-6.9,4.4-11.3c-0.1-9.4-7.1-15.6-17.1-15.6c-12.4,0-24.4,3.1-36.7,9.6c-7.3,3.8-14.8,5.8-22.1,5.8c-7.5,0-15.3-2-23-6
		c-12.4-6.4-24.9-9.5-37.4-9.5c-12.3,0-24.8,3.1-36.8,9.3c-8,4.1-15.6,5.9-23.4,5.9c-7.9,0-15.5-2-23.6-6c-12-6.1-24.4-9.4-36.7-9.4
		c-12.2,0-24.5,3.1-36.5,9.3c-8.2,4.2-16.3,6.3-24.1,6.3c-7.8,0-15.2-2-22.8-5.9c-11.5-6-23.7-9.1-36.5-9.1
		c-9.1,0-16.3,6.6-16.7,15.4c-0.1,4.4,1.4,8.4,4.3,11.5C60.1,373.9,64.3,375.6,69,375.6z"/>
	<path class="st1" d="M249.5,134.5c8.9,0,15.6-6.9,15.9-16.2c0.1-2.4,0-5,0-7.4c0-1.2,0-2.4,0-3.6c0-3.9,0-7.5-0.1-11.3
		c-0.2-8.9-6.9-15.7-15.6-15.9h-0.3l0,0c-8.7,0-15.6,7.1-15.7,16c-0.1,7.3-0.1,14.8,0,22.2C233.7,127.6,240.6,134.5,249.5,134.5z"/>
	<path class="st1" d="M83.9,277.6c3.7,0.1,7.4,0.1,11.1,0.1s7.4,0,11.1-0.1c9-0.1,16-7.2,16-16l0,0l0,0c-0.1-8.7-6.9-15.4-15.9-15.7
		c-1.2,0-2.3,0-3.8,0l0,0c-1.3,0-2.4,0-3.7,0c-1.2,0-2.4,0-3.6,0H83.7h-0.1h-0.1c-9,0.3-15.7,7.1-15.9,15.9
		c-0.1,4.3,1.5,8.3,4.6,11.3C75.4,275.8,79.5,277.5,83.9,277.6z"/>
	<path class="st1" d="M392.2,245.7c-8.8,0.1-15.6,7.2-15.6,16l0,0l0,0c0.1,8.7,6.9,15.4,15.9,15.7c1.2,0,2.4,0,3.9,0
		c1.3,0,2.5,0,3.8,0c1.3,0,2.4,0,3.7,0c0.9,0,1.9,0,2.8,0c0.9,0,1.9,0,2.8,0c2.3,0,4.1,0,5.8-0.1c8.7-0.2,15.6-7.1,15.7-15.6
		c0.1-4.3-1.5-8.2-4.4-11.2c-2.9-3-6.9-4.7-11.2-4.9c-3.8-0.1-7.8-0.1-11.6-0.1C400,245.6,396.1,245.7,392.2,245.7z"/>
	<path class="st1" d="M165.6,147.6c2.5,3.8,6.7,6.1,11.7,6.1c2,0,4.1-0.3,6-1.2c6.4-2.3,10.4-8.3,10.4-15.2c0-0.6,0-2.1-0.6-3.9
		L193,133l-0.2-0.3c-1.2-2-2.2-3.9-3.4-5.9c-3.5-6.3-7.1-12.7-11.1-18.9c-2.4-3.6-6.6-5.7-11.2-5.7l0,0c-3,0-6,0.8-8.7,2.4
		c-7.2,4.4-9.8,12.5-6.5,19.2C156.1,132,160.8,139.9,165.6,147.6z"/>
	<path class="st1" d="M96.7,191.8c6.4,4.1,13.9,8.7,21.9,12.6c2.2,1.2,4.6,1.7,6.9,1.7c8.6,0,15.7-7.2,16.4-16.4l0.1-1.5l-0.8-1.3
		c-0.3-0.6-0.7-1.4-1.2-2.1c-1.3-2.4-2.7-5.2-5.4-7.1c-6.6-4.5-14.1-8.9-22.8-13.3c-2.1-1-4.3-1.6-6.5-1.6l0,0
		c-5.7,0-10.9,3.4-13.7,8.6C87.9,178.8,90,187.4,96.7,191.8z"/>
	<path class="st1" d="M321.1,153.6c5.6,0,10.3-2.4,13.2-6.9v-0.1v-0.1l0.8-1.4c3.9-6.5,8-13.2,11.5-20c3.9-7.3,1.2-16.2-6.5-20.6
		c-2.4-1.4-5.2-2.2-8-2.2l0,0c-5.3,0-10.2,2.8-13.1,7.3c-4.6,7.4-8.6,14.2-12.2,21.2c-2.5,4.9-2.4,10.5,0.5,15.3
		C310.2,150.7,315.4,153.6,321.1,153.6z"/>
	<path class="st1" d="M373.2,206c2.7,0,5.3-0.7,7.9-2c6.9-3.7,13.7-7.8,20-11.5c5.2-3,7.9-8,7.9-15c0-8-6.9-14.6-15.6-14.6l0,0
		c-2.7,0-5.2,0.6-7.5,1.9l0,0l0,0c-6.1,3.2-12.7,6.9-20.4,11.7c-7.5,4.5-9.8,13.4-5.6,21.2C362.5,202.9,367.6,206,373.2,206z"/>
</g>
</svg>
