<?xml version="1.0" encoding="utf-8"?>
<!-- Generator: Adobe Illustrator 26.0.2, SVG Export Plug-In . SVG Version: 6.00 Build 0)  -->
<svg version="1.1" id="Layer_1" xmlns="http://www.w3.org/2000/svg" xmlns:xlink="http://www.w3.org/1999/xlink" x="0px" y="0px"
	 viewBox="0 0 500 500" style="enable-background:new 0 0 500 500;" xml:space="preserve">
<style type="text/css">
	.st0{fill:#F74152;}
	.st1{fill:#FFFFFF;}
	.st2{fill:#818184;}
</style>
<g id="UitDE4_00000066512110882776965260000007730025182198359743_">
	<g>
		<path class="st2" d="M139.8,192.6c-0.1-0.7-0.2-1-0.2-1.4c0-13.4,0-26.7,0-40.1c0-6.6,2.6-12,8.1-15.9c5.6-4,13.8-4.5,19.7-0.9
			c6,3.6,9.1,8.9,9.5,15.9c0.1,1.7,0.6,3.6,1.3,5.1c2.1,4.4,6.9,6.4,11.9,5.3c4.2-1,7.7-5.3,7.8-9.8c0.1-6.7-1.5-13-4.6-18.9
			c-3.8-7.2-9.4-12.7-16.6-16.6c-4.5-2.4-9.3-3.8-14.3-4.4c-3.3-0.4-6.7-0.3-10.1,0.3c-5.1,0.9-9.9,2.5-14.3,5.2
			c-7.2,4.4-12.6,10.4-16,18.1c-2.4,5.3-3.4,11-3.4,16.8c0,13.3,0,26.6,0,39.8c0,0.4-0.1,0.8-0.2,1.4c-0.5-0.4-0.7-0.7-1-0.9
			c-1.5-1.5-2.9-3.1-4.6-4.4c-3.3-2.8-7.1-3.4-11.1-1.6c-5.2,2.4-7.3,7.6-5.6,13.1c0.8,2.8,1.8,3.5,4.7,3.5c19,0,38,0,57,0
			c0.6,0,1.1,0.1,1.7,0c0.5-0.1,1-0.3,1.3-0.7c2.4-3.3,2.9-6.8,1.2-10.5c-1.6-3.7-4.6-5.8-8.6-6.2c-3.3-0.4-6.1,0.8-8.5,3.1
			c-1.3,1.3-2.6,2.6-3.9,3.9C140.6,192,140.3,192.2,139.8,192.6z"/>
		<path class="st2" d="M70,231.3c0.4-0.8,0.8-1.6,1.3-2.4c2.1-3.7,5.2-5.6,9.5-5.6c21.3,0,42.5,0,63.8,0c91.4,0,182.8,0,274.2,0
			c3.9,0,7.1,1.4,9.3,4.6c0.5,0.7,0.8,1.6,1.2,2.4c0.2,0.3,0.4,0.6,0.6,0.9c0,1.7,0,3.4,0,5c-0.2,0.3-0.5,0.7-0.7,1
			c-1.2,3.1-3.3,5.4-6.6,6.3c-1.9,0.5-4,0.4-6,0.7c-0.5,0.1-1.3,0.4-1.4,0.8c-0.8,2.8-1.5,5.5-2.2,8.3c-1.1,4-2.1,8-3.2,11.9
			c-1,3.9-2.1,7.9-3.2,11.8c-1,3.9-2.1,7.9-3.1,11.8c-1.3,4.8-2.6,9.6-3.9,14.5c-1.4,5.3-3,10.5-5.2,15.5c-3,6.7-6.9,13-11.7,18.6
			c-7.5,8.9-16.5,15.8-27,20.7c-1.1,0.5-2.1,1-3.4,1.6c0.4,0.5,0.7,0.9,1,1.3c2.8,3.5,5.6,6.9,8.5,10.4c2.6,3.2,3.3,6.9,1.8,10.8
			c-1.4,3.8-4.3,6-8.2,6.6c-4.2,0.7-7.6-1.1-10.2-4.4c-4.9-6.1-9.8-12.1-14.7-18.2c-0.6-0.7-1.2-1-2.2-0.9c-2.3,0.2-4.6,0.3-6.9,0.3
			c-47.8,0-95.6,0-143.4,0c-2.1,0-4.2-0.1-6.3-0.3c-1.2-0.1-2,0.2-2.8,1.2c-4.9,6.1-9.9,12.3-14.9,18.4c-3.2,3.9-8.4,5.2-12.8,2.9
			c-6.4-3.3-8-10.7-3.5-16.3c2.7-3.4,5.5-6.8,8.2-10.2c1.4-1.7,1.4-1.7-0.6-2.6c-6.3-2.7-12-6.2-17.4-10.5
			c-7.5-6-13.7-13.1-18.5-21.3c-3.1-5.3-5.7-10.8-7.5-16.7c-1.1-3.5-2-7.1-3-10.6c-1.1-4-2.2-8-3.2-12c-1.3-4.8-2.5-9.7-3.8-14.5
			c-1.3-4.9-2.6-9.7-3.9-14.6c-1.2-4.6-2.4-9.1-3.6-13.7c-0.1-0.3-0.7-0.7-1.1-0.8c-1.1-0.1-2.3,0-3.5-0.1c-3.9-0.3-6.9-2.1-8.8-5.6
			c-0.5-0.8-0.9-1.6-1.3-2.5C70,234.7,70,233,70,231.3z"/>
		<path class="st2" d="M139.8,192.6c0.5-0.4,0.8-0.7,1.1-0.9c1.3-1.3,2.6-2.6,3.9-3.9c2.4-2.3,5.2-3.4,8.5-3.1c4,0.4,7,2.5,8.6,6.2
			c1.6,3.7,1.1,7.3-1.2,10.5c-0.3,0.4-0.8,0.6-1.3,0.7c-0.5,0.1-1.1,0-1.7,0c-19,0-38,0-57,0c-2.9,0-3.8-0.7-4.7-3.5
			c-1.7-5.5,0.4-10.7,5.6-13.1c4-1.8,7.8-1.1,11.1,1.6c1.6,1.3,3,2.9,4.6,4.4c0.2,0.2,0.5,0.5,1,0.9c0.1-0.6,0.2-1,0.2-1.4
			c0-13.3,0-26.6,0-39.8c0-5.8,1-11.4,3.4-16.8c3.4-7.7,8.8-13.8,16-18.1c4.4-2.7,9.2-4.3,14.3-5.2c3.4-0.6,6.8-0.7,10.1-0.3
			c5,0.6,9.8,2,14.3,4.4c7.2,3.9,12.8,9.4,16.6,16.6c3.1,5.9,4.7,12.2,4.6,18.9c-0.1,4.5-3.5,8.9-7.8,9.8c-5,1.1-9.9-0.9-11.9-5.3
			c-0.7-1.6-1.2-3.4-1.3-5.1c-0.4-7-3.5-12.3-9.5-15.9c-5.9-3.6-14.2-3.1-19.7,0.9c-5.4,3.9-8.1,9.3-8.1,15.9c0,13.4,0,26.7,0,40.1
			C139.6,191.6,139.7,192,139.8,192.6z"/>
	</g>
</g>
</svg>
