<?xml version="1.0" encoding="utf-8"?>
<!-- Generator: Adobe Illustrator 26.0.2, SVG Export Plug-In . SVG Version: 6.00 Build 0)  -->
<svg version="1.1" id="Layer_1" xmlns="http://www.w3.org/2000/svg" xmlns:xlink="http://www.w3.org/1999/xlink" x="0px" y="0px"
	 viewBox="0 0 500 500" style="enable-background:new 0 0 500 500;" xml:space="preserve">
<style type="text/css">
	.st0{fill:#F74152;}
	.st1{fill:#FFFFFF;}
	.st2{fill:#818184;}
</style>
<g id="fBpcxK_00000177451692515901404970000006649354260767692188_">
	<g>
		<path class="st2" d="M250,340c-44.4,0-88.7,0-133.1,0c-1.9,0-1.9,0-1.9,2c0,3.1,0,6.2,0,9.2c-0.1,5-3,8.9-7.7,10.8
			c-1.9,0.8-3.9,0.9-5.6,0.4c-3.8-1-6.9-3.3-8.4-7.2c-0.4-1.1-0.7-2.2-0.7-3.4c0-26.9-0.1-53.8,0-80.8c0-7.8,3-14.6,8-20.5
			c3.6-4.2,7.9-7.3,13-9.4c3.7-1.5,7.5-2.3,11.4-2.4c0.9,0,1.8,0,2.6,0c81.5,0,163,0,244.6,0c3.9,0,7.8,0.3,11.6,1.6
			c6,1.9,11.1,5.2,15.2,10c4.1,4.8,6.9,10.2,7.8,16.4c0.3,2,0.5,4,0.5,6.1c0,26,0,52.1,0,78.1c0,5.3-2.7,9-7.7,11
			c-5.8,2.4-12.7-2.1-14-7.1c-0.4-1.3-0.6-2.7-0.6-4.1c-0.1-3.2-0.1-6.3,0-9.5c0-0.9-0.3-1.4-1.2-1.3c-0.4,0-0.7,0-1.1,0
			C338.5,340,294.2,340,250,340z"/>
		<path class="st2" d="M250,137.4c37.3,0,74.6,0.1,111.8-0.1c7.5,0,12.1,6.4,12,12c-0.2,21.8-0.1,43.7,0,65.5c0,1.1-0.4,1.4-1.4,1.4
			c-10.4,0-20.7,0-31.1,0c-1.1,0-1.4-0.4-1.3-1.4c0.1-3.2,0.1-6.4,0-9.6c-0.1-8.4-3.8-15-10.9-19.5c-3.1-2-6.5-3.1-10.2-3.2
			c-12.2-0.1-24.5-0.4-36.7,0.1c-8.7,0.3-15,5.1-18.9,13c-1.5,3.2-2.2,6.6-2.1,10.1c0,3.1,0,6.2,0,9.2c0,0.9-0.3,1.3-1.2,1.3
			c-6.7,0-13.4,0-20,0c-1,0-1.3-0.4-1.3-1.4c0-3.2,0.1-6.4,0-9.6c-0.1-8.4-3.7-15-10.8-19.5c-3.1-2-6.6-3.2-10.3-3.2
			c-12.1-0.1-24.2-0.3-36.4,0.1c-8.9,0.3-15.3,5-19.2,13.1c-1.5,3.1-2.1,6.3-2.1,9.8c0,3.2,0,6.3,0,9.5c0,1-0.3,1.3-1.3,1.3
			c-10.4,0-20.8,0-31.2,0c-1,0-1.3-0.3-1.3-1.3c0-21.9,0.1-43.8,0-65.6c0-5.3,3.4-9.9,7.9-11.3c1.3-0.4,2.5-0.6,3.7-0.6
			C175.2,137.4,212.6,137.4,250,137.4z"/>
	</g>
</g>
</svg>
