<?xml version="1.0" encoding="utf-8"?>
<!-- Generator: Adobe Illustrator 26.0.2, SVG Export Plug-In . SVG Version: 6.00 Build 0)  -->
<svg version="1.1" id="Layer_1" xmlns="http://www.w3.org/2000/svg" xmlns:xlink="http://www.w3.org/1999/xlink" x="0px" y="0px"
	 viewBox="0 0 500 500" style="enable-background:new 0 0 500 500;" xml:space="preserve">
<style type="text/css">
	.st0{fill:#818184;}
</style>
<g id="iz6tFt_00000175318559145666682470000009648558328278695302_">
	<g>
		<path class="st0" d="M405.9,469c-17.2,0-34.5,0-51.5,0c-6.1,0-10.3-2.6-12.8-7.9c-2.4-5.5-1.2-10.3,2.8-14.8
			c10.5-11.1,21.1-22.5,31.6-33.7c1.6-1.6,1.4-2.6-0.2-4.1c-17-16.8-33.9-33.9-50.7-50.7c-5.7-5.7-8.9-12.4-7.7-20.5
			c1.2-9.3,6.5-15.8,14.8-19.5c7.9-3.4,16-2.6,22.9,2.6c4.7,3.6,8.7,8.1,12.8,12.2c14,14,28.2,28,42.2,42.2c1.6,1.6,2.6,1,4.1-0.2
			c10.9-10.1,21.9-20.3,32.6-30.6c3.9-3.9,8.1-5.9,13.4-3.4c5.9,2.6,10.1,7.1,10.1,14.2c0,33.7,0,67.3,0,101c0,4.7-1,8.9-5.3,11.6
			c-2.2,1.4-4.5,1.8-7.1,1.8C440.6,469,423.3,469,405.9,469z"/>
		<path class="st0" d="M403.9,31.2c17,0,34.3,0.2,51.3,0c8.3-0.2,12.8,6.3,12.8,12.6c-0.2,34.7,0,69.1,0,103.8
			c0,5.1-2.4,8.7-6.7,10.9c-4.9,2.4-9.5,1.4-13.4-1.8c-5.3-4.7-10.3-9.5-15.6-14.4c-6.9-6.5-13.8-12.8-20.7-19.3
			c-1.6-1.4-2.4-1.6-4.1,0c-16.6,16.8-33.4,33.4-50.1,50.3c-5.9,6.1-12.8,9.5-21.3,8.3c-9.1-1.2-15.6-6.5-19.5-14.8
			c-3.6-7.9-2.6-15.8,2.6-22.9c1.2-1.8,2.8-3.4,4.5-5.1c16.6-16.6,33-33.2,49.7-49.7c1.6-1.6,1.6-2.4,0.2-4.1
			c-10.3-10.9-20.5-22.3-31.2-33c-7.5-7.7-3-17.4,5.7-20.5c1-0.4,2.4-0.2,3.6-0.2C369.2,31.2,386.4,31.2,403.9,31.2z"/>
		<path class="st0" d="M94.5,31.2c17.6,0,35.3,0,52.7,0c4.9,0,8.3,2.8,10.5,7.1c2,4.1,1,7.7-2,10.9c-11.1,12-22.3,23.9-33.7,35.7
			c-1.6,1.6-1.6,2.6,0,4.3c16,16.6,31.8,33.4,47.8,50.1c5.1,5.3,8.7,10.9,8.3,18.4c-0.4,10.5-5.7,18-15.2,22.1
			c-8.9,3.9-17.6,2.4-24.7-4.3c-7.3-6.7-14.2-14-21.3-21.1c-10.5-10.5-21.1-21.1-31.6-31.6c-1.4-1.4-2.2-1.6-3.6,0
			c-10.9,11.1-22.1,22.1-33,33.2c-5.7,5.7-13.8,4.5-17.2-3c-0.8-1.6-1.2-3.6-1.2-5.5c0-34.7,0-69.3-0.2-104.2
			c0-6.9,5.9-12.6,12.4-12.6C59.9,31.4,77.3,31.2,94.5,31.2z"/>
		<path class="st0" d="M30.1,404.8c0-17.6,0-35.3,0-52.7c0-4.9,3.2-9.3,7.9-11.1c2.8-1,5.3-0.4,7.3,1.6c5.1,4.9,9.9,9.9,14.8,14.6
			c7.1,6.7,14.2,13.2,21.3,20.1c1.6,1.6,2.6,1.4,4.1,0c16.8-16.8,33.7-33.7,50.3-50.5c5.1-5.1,10.9-8.5,18.2-8.3
			c10.7,0.2,18,5.7,22.3,15.2c4.1,9.1,2,17.6-4.5,24.7c-4.3,4.7-8.7,8.9-13.2,13.4c-13.2,13.2-26.2,26.4-39.3,39.3
			c-1.6,1.6-1.4,2.4,0.2,3.9c10.9,10.1,21.9,20.3,32.6,30.6c2.4,2.4,4.7,4.9,5.9,8.3c2.6,7.3-4.1,15.4-11.1,15.4
			c-35.1,0-70.1-0.2-105.4,0c-6.1,0-11.8-5.7-11.8-11.8C30.3,439.8,30.1,422.4,30.1,404.8z"/>
	</g>
</g>
</svg>
