<svg width="40" height="40" viewBox="0 0 40 40" fill="none" xmlns="http://www.w3.org/2000/svg">
<ellipse cx="20" cy="20.1827" rx="20" ry="19.7413" fill="white"/>
<path d="M29 14.0813C29 12.6033 27.6788 11.2991 26.1813 11.2991H14.8186C13.3212 11.2991 12 12.6033 12 14.0813V25.297C12 26.775 13.3212 28.0792 14.8186 28.0792H20.544V21.7323H18.4301V18.9501H20.544V17.8199C20.544 15.9071 21.9534 14.2552 23.715 14.2552H26.0052V17.0374H23.715C23.4508 17.0374 23.1865 17.2982 23.1865 17.8199V18.9501H26.0052V21.7323H23.1865V28.0792H26.1813C27.6788 28.0792 29 26.775 29 25.297V14.0813Z" fill="#F64152"/>
</svg>
