<?xml version="1.0" encoding="utf-8"?>
<!-- Generator: Adobe Illustrator 26.0.2, SVG Export Plug-In . SVG Version: 6.00 Build 0)  -->
<svg version="1.1" id="Layer_1" xmlns="http://www.w3.org/2000/svg" xmlns:xlink="http://www.w3.org/1999/xlink" x="0px" y="0px"
	 viewBox="0 0 1366 768" style="enable-background:new 0 0 1366 768;" xml:space="preserve">
<style type="text/css">
	.st0{fill:#FCCD4D;}
	.st1{fill:#F64152;}
	.st2{fill:#FEFEFE;}
	.st3{enable-background:new    ;}
	.st4{fill:#3A3C44;}
</style>
<g id="_x31_qFUWA_00000107560316361690723860000016737871781716818622_">
	<g>
		<path class="st0" d="M242.7,196.4c6.1,0,12.2,0,18.3,0c1.6,0.5,3.3,0.2,5,0.6c3.3,13.3,5,26.9,5.3,40.5c0.2,8.9-0.2,17.8-1.3,26.7
			c-1.1,9-2.7,17.9-5.1,26.7c-0.4-0.3-0.9-0.6-1.2-1c-2.8-2.5-5.6-5-8.5-7.4c-2.1-1.8-4.4-1.8-6.4,0.1c-4.3,3.8-8.6,7.6-12.9,11.4
			c-11.2,9.8-22.3,19.7-33.5,29.5c-9.1,8-18.1,16-27.2,24c-9.1,8-18.2,16.1-27.3,24.1c-1.7,1.5-2.3,3.6-1.5,5.5
			c0.7,1.8,2.3,2.8,4.5,2.8c4.5,0,9.1,0.1,13.6,0c3.5-0.1,5.2,2.4,5.2,5.1c-0.1,6.3,0,12.6,0,18.9c0,2.3-0.1,4.6-0.1,6.9
			c-3.5,1.7-7,3.5-10.6,5.1c-18.5,8.4-37.9,13.6-58.1,15.8c-9.8,1-19.6,1.4-29.5,0.8c-0.8-2.2-1.2-4.4-1.7-6.6
			c-2.1-9.1-3.5-18.3-4.2-27.7c-0.1-1.7,0.1-3.5-0.5-5.2c0-6.1,0-12.2,0-18.3c0.6-1.6,0.4-3.3,0.5-4.9c0.7-9.8,2.2-19.5,4.5-29.1
			c4.3-18.3,11.2-35.5,20.7-51.7c12.1-20.6,27.6-38.3,46.5-53.1c18.5-14.5,39.1-25,61.6-31.8c7.5-2.3,15.3-3.7,23-5.2
			c5.4-1,10.9-1.6,16.4-2C239.7,196.7,241.3,196.9,242.7,196.4z"/>
		<path class="st1" d="M265.9,196.9c6,0.3,11.9,1.1,17.9,2.1c26.2,4.6,50.5,14.2,72.4,29.2c40.3,27.7,66.2,65.4,77.7,112.9
			c4.3,17.7,5.7,35.8,4.5,54c-4.1,67.7-44.2,127.7-105,157.3c-18.6,9.1-38.1,14.8-58.6,17.3c-14.8,1.8-29.7,1.9-44.5,0.1
			c-44.9-5.5-83-24.7-114.1-57.5c-21.6-22.7-36.3-49.3-44.6-79.5c0-0.2-0.1-0.3-0.1-0.5c9.8,0.6,19.7,0.2,29.5-0.8
			c20.2-2.2,39.6-7.4,58.1-15.8c3.6-1.6,7.1-3.4,10.6-5.1c0,0.4,0.1,0.8,0.1,1.2c0,17.4,0,34.9,0,52.3c0,3.5,1.8,5.3,5.3,5.3
			c9.1,0,18.2,0,27.3,0c42.3,0,84.5,0,126.8,0c3.5,0,5.2-1.7,5.2-5c0-26.4,0-52.7,0-79.1c0-0.3,0-0.6,0-0.9c0.1-2.9,2-4.7,4.9-4.7
			c4.6,0,9.3,0,13.9,0c2.4,0,4-0.9,4.8-2.8c0.8-2,0.2-3.9-1.6-5.6c-3-2.7-6-5.3-9-8c-12.5-11-24.9-21.9-37.4-32.9
			s-25.1-22-37.6-33.1c-2.5-2.2-5.1-4.2-7.4-6.6c2.3-8.8,4-17.7,5.1-26.7c1-8.9,1.5-17.8,1.3-26.7
			C270.9,223.8,269.2,210.3,265.9,196.9z"/>
		<path class="st2" d="M265,290.9c2.3,2.4,4.9,4.4,7.4,6.6c12.5,11,25,22,37.6,33.1c12.5,11,24.9,21.9,37.4,32.9c3,2.7,6,5.3,9,8
			c1.8,1.6,2.4,3.6,1.6,5.6c-0.7,1.9-2.3,2.8-4.8,2.8c-4.6,0-9.3,0-13.9,0c-2.9,0-4.8,1.8-4.9,4.7c0,0.3,0,0.6,0,0.9
			c0,26.4,0,52.7,0,79.1c0,3.3-1.8,5-5.2,5c-42.3,0-84.5,0-126.8,0c-9.1,0-18.2,0-27.3,0c-3.4,0-5.3-1.9-5.3-5.3
			c0-17.4,0-34.9,0-52.3c0-0.4-0.1-0.8-0.1-1.2c0-2.3,0.1-4.6,0.1-6.9c0-6.3-0.1-12.6,0-18.9c0-2.7-1.6-5.2-5.2-5.1
			c-4.5,0.1-9.1,0-13.6,0c-2.3,0-3.8-1-4.5-2.8c-0.7-1.9-0.1-4,1.5-5.5c9.1-8,18.2-16.1,27.3-24.1s18.1-16,27.2-24
			c11.2-9.8,22.3-19.7,33.5-29.5c4.3-3.8,8.6-7.6,12.9-11.4c2.1-1.8,4.4-1.9,6.4-0.1c2.8,2.5,5.6,5,8.5,7.4
			C264.1,290.3,264.5,290.6,265,290.9z M252.5,399.6L252.5,399.6c8.9,0,17.8,0,26.6,0c3.5,0,6-2.5,6-6c0-3,0-6,0-9
			c0-3.4-2.5-5.9-5.9-5.9c-17.8,0-35.5,0-53.3,0c-3.7,0-6.1,2.5-6.1,6.2c0,2.7,0,5.4,0,8.1c0,4.3,2.3,6.6,6.6,6.6
			C235.1,399.6,243.8,399.6,252.5,399.6z M252.6,425.1c-8.9,0-17.8,0-26.6,0c-3.5,0-6,2.5-6,6c0,3,0,5.9,0,8.9
			c0,3.6,2.5,6.1,6.1,6.1c17.7,0,35.3,0,53,0c3.6,0,6.1-2.4,6.1-6.1c0-2.8,0-5.6,0-8.3c0-4.2-2.3-6.5-6.6-6.5
			C269.9,425.1,261.2,425.1,252.6,425.1z"/>
		<path class="st1" d="M252.5,399.6c-8.7,0-17.3,0-26,0c-4.3,0-6.6-2.3-6.6-6.6c0-2.7,0-5.4,0-8.1c0-3.7,2.4-6.2,6.1-6.2
			c17.8,0,35.5,0,53.3,0c3.4,0,5.8,2.5,5.9,5.9c0,3,0,6,0,9c0,3.5-2.5,6-6,6C270.2,399.6,261.3,399.6,252.5,399.6L252.5,399.6z"/>
		<path class="st1" d="M252.6,425.1c8.7,0,17.3,0,26,0c4.2,0,6.6,2.3,6.6,6.5c0,2.8,0,5.6,0,8.3c0,3.6-2.5,6.1-6.1,6.1
			c-17.7,0-35.3,0-53,0c-3.6,0-6.1-2.4-6.1-6.1c0-3,0-5.9,0-8.9c0-3.5,2.5-6,6-6C234.8,425,243.7,425.1,252.6,425.1z"/>
	</g>
</g>
<g class="st3">
	<path class="st4" d="M526,388.3c-1.8,0-2.8-1-2.8-2.8v-92.2c0-1.8,1-2.8,2.8-2.8h60.5c1.8,0,2.8,1,2.8,2.8v19.4
		c0,1.8-1,2.8-2.8,2.8h-37.6v15.4h32.1c1.8,0,2.8,1,2.8,2.8v18.7c0,1.5-1.1,2.8-2.8,2.8h-32.1v30.3c0,1.7-1.3,2.8-2.8,2.8H526z"/>
	<path class="st4" d="M610.4,281.3c8,0,14.3,6.2,14.3,14.1c0,7.7-6.3,13.8-14.3,13.8c-7.7,0-13.7-6.1-13.7-13.8
		C596.7,287.4,602.7,281.3,610.4,281.3z M600.8,388.3c-1.8,0-2.7-1-2.7-2.8v-64.3c0-1.8,0.8-2.8,2.7-2.8h19.8c1.8,0,2.8,1,2.8,2.8
		v64.3c0,1.8-1,2.8-2.8,2.8H600.8z"/>
	<path class="st4" d="M659.6,318.4c1.8,0,2.8,1,2.8,2.8v6.6h0.1c2.7-5.6,9.4-10.8,16.5-10.8c4.5,0,8.2,0.8,11.2,2.5
		c1.3,0.7,1.5,2.1,0.8,4.2l-5.2,18.2c-0.7,1.5-1.8,1.8-3.6,1c-1.8-0.7-3.8-1.1-6.1-1.1c-8,0-13.7,5.3-13.7,15.4v28.4
		c0,1.8-1,2.8-2.8,2.8h-19.7c-1.8,0-2.8-1-2.8-2.8v-64.3c0-1.8,1-2.8,2.8-2.8H659.6z"/>
	<path class="st4" d="M722.1,370.9c2.7,0,4.1-1,4.1-2.8c0-6.7-30.3-6.6-30.3-29.4c0-6.3,2.5-11.5,7.7-15.5
		c5.2-4.1,11.5-6.2,18.9-6.2c9.4,0,18.3,3.8,23.2,8.7c1.3,1.3,1.1,2.5-0.3,3.8l-8.4,9.1c-1,1-2.4,1-4.2,0.3c-3.8-2-7.1-2.9-9.9-2.9
		c-2.5,0-3.8,0.8-3.8,2.4c0,1.8,4.8,3.5,10.8,5.9c8.5,3.1,19.7,9.8,19.6,22.9c0,6.3-2.5,11.6-7.7,16.1c-5,4.3-11.7,6.6-20.1,6.6
		c-10.8,0-19.8-3.9-27-11.6c-1.3-1.3-1.1-2.8,0.4-4.6l8-8.5c1.3-1.3,2.9-1.4,4.8-0.1C713.2,368.9,718.1,370.9,722.1,370.9z"/>
	<path class="st4" d="M811.3,380.8c0.6,1.7,0.3,2.8-1,3.5c-6.3,3.6-13,5.5-20.4,5.5c-16.4,0-25.9-9.5-25.9-26.1v-22.1h-5.6
		c-1.8,0-2.7-1-2.7-2.8v-17.5c0-1.8,0.8-2.8,2.7-2.8h5.6v-17.9c0-1.8,1-2.8,2.8-2.8h19.7c1.8,0,2.8,1,2.8,2.8v17.9h15.1
		c1.8,0,2.8,1,2.8,2.8v17.5c0,1.8-1,2.8-2.8,2.8h-15.1v18.6c0,3.8,1.8,5.6,5.3,5.6c2,0,4.1-0.6,6.3-1.7c1.3-0.7,2.2-0.3,2.9,1
		L811.3,380.8z"/>
	<path class="st4" d="M922.3,290.5c1.8,0,2.8,1,2.8,2.8v19.4c0,1.7-1.3,2.8-2.8,2.8h-33.7v11.7h28.8c1.8,0,2.8,1,2.8,2.8v18.7
		c0,1.8-1,2.8-2.8,2.8h-28.8v11.7h34c1.8,0,2.8,1,2.8,2.8v19.4c0,1.8-1,2.8-2.8,2.8h-56.9c-1.8,0-2.8-1-2.8-2.8v-92.2
		c0-1.8,1-2.8,2.8-2.8H922.3z"/>
	<path class="st4" d="M959,370.9c2.7,0,4.1-1,4.1-2.8c0-6.7-30.3-6.6-30.3-29.4c0-6.3,2.5-11.5,7.7-15.5c5.2-4.1,11.5-6.2,18.9-6.2
		c9.4,0,18.3,3.8,23.2,8.7c1.3,1.3,1.1,2.5-0.3,3.8l-8.4,9.1c-1,1-2.4,1-4.2,0.3c-3.8-2-7.1-2.9-9.9-2.9c-2.5,0-3.8,0.8-3.8,2.4
		c0,1.8,4.8,3.5,10.8,5.9c8.5,3.1,19.7,9.8,19.6,22.9c0,6.3-2.5,11.6-7.7,16.1c-5,4.3-11.7,6.6-20.1,6.6c-10.8,0-19.8-3.9-27-11.6
		c-1.3-1.3-1.1-2.8,0.4-4.6l8-8.5c1.3-1.3,2.9-1.4,4.8-0.1C950.1,368.9,955,370.9,959,370.9z"/>
	<path class="st4" d="M1048.2,380.8c0.6,1.7,0.3,2.8-1,3.5c-6.3,3.6-13,5.5-20.4,5.5c-16.4,0-25.9-9.5-25.9-26.1v-22.1h-5.6
		c-1.8,0-2.7-1-2.7-2.8v-17.5c0-1.8,0.8-2.8,2.7-2.8h5.6v-17.9c0-1.8,1-2.8,2.8-2.8h19.7c1.8,0,2.8,1,2.8,2.8v17.9h15.1
		c1.8,0,2.8,1,2.8,2.8v17.5c0,1.8-1,2.8-2.8,2.8h-15.1v18.6c0,3.8,1.8,5.6,5.3,5.6c2,0,4.1-0.6,6.3-1.7c1.3-0.7,2.2-0.3,2.9,1
		L1048.2,380.8z"/>
	<path class="st4" d="M1065,321.5c1.7-0.7,5-1.7,10.1-2.8c5.2-1.1,10.2-1.7,15.2-1.7c14.4,0,24.3,3.8,29.5,10.6
		c5.2,6.8,7.1,14.5,7.1,25.2v32.7c0,1.8-1,2.8-2.8,2.8h-18.4c-1.8,0-2.8-1-2.8-2.8v-2.9c-2.2,2.2-5.7,3.9-10.3,5.2
		c-4.6,1.3-8.9,1.8-13,2c-6.6,0.1-12.2-1.4-17.1-4.8c-4.8-3.5-7.1-8.8-7-15.9c0.4-9.9,5.9-15.5,14-18.6c5.7-2.2,9.5-3.1,15.7-3.6
		c3.1-0.3,5.2-0.4,6.4-0.4c1.3-0.1,2.8-0.1,4.6-0.1l5.3,0.1v-0.7c0-4.6-4.5-7-13.4-7c-5,0-12.4,1.4-16.4,2.4l-2.9,0.8
		c-1.8,0.4-3.1-0.1-3.5-1.5l-5-13.1c-0.8-2.1-0.6-3.4,1-4.1L1065,321.5z M1101.9,360.5h-2c-12,0-18,2.5-18,7.5
		c0,3.9,2.7,5.9,8.1,5.9c7.1,0,11.9-4.2,11.9-10.2V360.5z"/>
	<path class="st4" d="M1190.5,380.8c0.6,1.7,0.3,2.8-1,3.5c-6.3,3.6-13,5.5-20.4,5.5c-16.4,0-25.9-9.5-25.9-26.1v-22.1h-5.6
		c-1.8,0-2.7-1-2.7-2.8v-17.5c0-1.8,0.8-2.8,2.7-2.8h5.6v-17.9c0-1.8,1-2.8,2.8-2.8h19.7c1.8,0,2.8,1,2.8,2.8v17.9h15.1
		c1.8,0,2.8,1,2.8,2.8v17.5c0,1.8-1,2.8-2.8,2.8h-15.1v18.6c0,3.8,1.8,5.6,5.3,5.6c2,0,4.1-0.6,6.3-1.7c1.3-0.7,2.2-0.3,2.9,1
		L1190.5,380.8z"/>
	<path class="st4" d="M1244,365.7c1.5-0.7,2.9-0.4,3.9,0.8l8.8,12.4c1,1.5,0.7,2.8-0.8,3.6c-8,4.8-16.9,7.1-26.7,7.1
		c-9.9,0-18.4-3.6-25.6-10.8c-7.1-7.1-10.8-15.7-10.8-25.6c0-9.6,3.2-18.2,9.8-25.4s14.8-10.9,24.6-10.9c10.8,0,19.4,3.9,25.7,11.6
		c6.3,7.7,9.5,17.2,9.5,28.5c0,1.8-1,2.8-2.8,2.8h-43.2c1.8,5.2,7,8.7,13.6,8.7C1234.9,368.6,1239.6,367.6,1244,365.7z
		 M1238.4,345.3c-1.8-6-5.6-9.1-11.2-9.1c-4.9,0-8.9,3.4-10.5,9.1H1238.4z"/>
</g>
<g class="st3">
	<path class="st4" d="M563.1,450.8c-0.4,0.8-1.1,0.9-1.8,0.3c-3.7-2.3-7.7-3.4-12-3.4c-6.5,0-11.8,2.3-16.1,6.7s-6.5,9.9-6.5,16.4
		c0,6.5,2.2,11.8,6.5,16.3c4.3,4.4,9.6,6.6,16.1,6.6c4.4,0,8.6-1.2,12.2-3.5c0.8-0.5,1.3-0.4,1.8,0.3l2.7,4.2
		c0.4,0.8,0.3,1.3-0.4,1.8c-4.9,3-10.3,4.5-16.2,4.5c-8.6,0-15.8-2.9-21.5-8.6c-5.6-5.8-8.5-12.9-8.5-21.5c0-8.6,2.9-15.8,8.6-21.6
		c5.7-5.8,12.8-8.7,21.4-8.7c6,0,11.3,1.5,16,4.5c0.8,0.4,0.9,0.9,0.5,1.6L563.1,450.8z"/>
	<path class="st4" d="M609.4,463.7c4.1,4.3,6.2,9.4,6.2,15.4s-2.1,11.2-6.2,15.4c-4.1,4.3-9.1,6.4-15.2,6.4c-6,0-11.1-2.1-15.2-6.3
		c-4.1-4.3-6.1-9.4-6.1-15.5s2-11.2,6.1-15.4c4.1-4.3,9.2-6.4,15.2-6.4C600.2,457.4,605.3,459.5,609.4,463.7z M604.2,468.7
		c-2.7-2.9-6-4.3-10.1-4.3s-7.4,1.4-10.1,4.3c-2.7,2.9-4,6.4-4,10.5s1.3,7.6,4,10.5c2.8,2.9,6.1,4.3,10.1,4.3s7.4-1.4,10.1-4.3
		c2.8-2.9,4.1-6.4,4.1-10.5C608.4,475,607,471.4,604.2,468.7z"/>
	<path class="st4" d="M636.9,495.1c4.9,0,8.5-2.5,8.5-6.5c0-3.3-3.6-5.5-8.1-7c-6.4-2.3-14.7-4.8-14.7-12.7c0-3.3,1.3-6,4.1-8.2
		c2.8-2.3,6.2-3.4,10.3-3.4c5.3,0,9.7,1.6,13.3,4.7c0.6,0.6,0.6,1.1,0.1,1.5l-2.3,2.5c-0.4,0.4-1,0.5-1.7,0.1
		c-2.9-1.9-6-2.9-9.3-2.9c-4.1,0-7.7,2.2-7.7,5.6c0,7.9,22.8,5.2,22.8,19.5c0,3.6-1.4,6.5-4.4,9c-2.9,2.4-6.5,3.6-11.1,3.6
		c-6,0-11-2-15-6c-0.5-0.6-0.4-1.2,0.2-1.8l2.2-2.3c0.5-0.5,1.1-0.5,1.8,0C629.2,493.7,632.9,495.1,636.9,495.1z"/>
	<path class="st4" d="M685.2,497.3c0.3,0.6,0.1,1.1-0.6,1.4c-2.9,1.5-5.9,2.3-8.8,2.3c-7.1,0-11.3-3.9-11.3-11v-25h-4.5
		c-0.8,0-1.1-0.3-1.1-1.1v-4.6c0-0.8,0.3-1.1,1.1-1.1h4.5v-11.3c0-0.8,0.3-1.1,1.1-1.1h5.1c0.8,0,1.1,0.3,1.1,1.1v11.3h10.6
		c0.8,0,1.1,0.3,1.1,1.1v4.6c0,0.8-0.3,1.1-1,1.1h-10.7v24.2c0,3.2,1.7,4.8,5.1,4.8c1.5,0,3.2-0.4,5.1-1.3c0.5-0.3,0.8-0.2,1.1,0.3
		L685.2,497.3z"/>
	<path class="st4" d="M713.2,457.4c8,0,13.4,1.9,16.2,5.7c2.9,3.7,3.9,8.1,3.9,14.4v21.4c0,0.8-0.4,1.3-1.3,1.3h-4.6
		c-0.8,0-1.2-0.4-1.2-1.3v-4.3c-4.5,4.3-10.4,6.4-17.6,6.4c-6.9,0-14.5-2.5-14.5-12.3c0-6.5,3.9-9.4,9.4-11.5
		c1.8-0.7,3.8-1.2,6.2-1.4c4.9-0.7,8.7-0.8,14.2-0.8h1.8v-0.3c0-1.8,0.1-2.5-0.8-4.9c-1.2-3-4.4-5.8-12.2-5.8
		c-3.8,0-8.6,0.9-10.9,1.8l-1.7,0.6c-0.8,0.3-1.3,0.1-1.6-0.7l-1.3-3.5c-0.3-0.8-0.1-1.3,0.7-1.7
		C702.1,458.4,707.2,457.4,713.2,457.4z M726,479.6h-1.2c-15.3,0-23.1,2.1-23.1,8.8c0,4.9,3.4,7.5,10.1,7.5c3.6,0,6.8-0.9,9.7-2.8
		c2.9-1.8,4.4-3.8,4.4-5.8V479.6z"/>
	<path class="st4" d="M772.2,500.1c-0.8,0-1.1-0.3-1.1-1.1v-56.5c0-0.8,0.3-1.1,1.1-1.1h18.1c5.1,0,9.2,1.3,12.3,4.1
		c3.1,2.8,4.7,6.2,4.7,10.5c0,6-2.8,10.2-8.2,12.8c7,1.7,11.7,7.4,11.7,15.1c0,4.6-1.7,8.5-5,11.6s-7.7,4.6-13.1,4.6H772.2z
		 M790.1,465.9c5.6,0,9.7-3.7,9.7-8.8c0-5.3-3.9-8.8-10.9-8.8h-10.4v17.6H790.1z M791.3,493.2c7.3,0,12-4.5,12-10.2
		c0-6.4-5.1-10.5-12.7-10.5h-12v20.7H791.3z"/>
	<path class="st4" d="M823.1,500.1c-0.8,0-1.1-0.3-1.1-1.1v-60.7c0-0.8,0.3-1.1,1.1-1.1h5.1c0.8,0,1.1,0.3,1.1,1.1V499
		c0,0.8-0.3,1.1-1.1,1.1H823.1z"/>
	<path class="st4" d="M861.1,457.4c8,0,13.4,1.9,16.2,5.7c2.9,3.7,3.9,8.1,3.9,14.4v21.4c0,0.8-0.4,1.3-1.3,1.3h-4.6
		c-0.8,0-1.2-0.4-1.2-1.3v-4.3c-4.5,4.3-10.4,6.4-17.6,6.4c-6.9,0-14.5-2.5-14.5-12.3c0-6.5,3.9-9.4,9.4-11.5
		c1.8-0.7,3.8-1.2,6.2-1.4c4.9-0.7,8.7-0.8,14.2-0.8h1.8v-0.3c0-1.8,0.1-2.5-0.8-4.9c-1.2-3-4.4-5.8-12.2-5.8
		c-3.8,0-8.6,0.9-10.9,1.8l-1.7,0.6c-0.8,0.3-1.3,0.1-1.6-0.7l-1.3-3.5c-0.3-0.8-0.1-1.3,0.7-1.7
		C850.1,458.4,855.2,457.4,861.1,457.4z M874,479.6h-1.2c-15.3,0-23.1,2.1-23.1,8.8c0,4.9,3.4,7.5,10.1,7.5c3.6,0,6.8-0.9,9.7-2.8
		c2.9-1.8,4.4-3.8,4.4-5.8V479.6z"/>
	<path class="st4" d="M928,500.1c-0.8,0-1.1-0.3-1.1-1.1v-20.9c0-8.6-3.6-13.8-11.1-13.8c-3.4,0-6.4,1.3-8.8,4.1
		c-2.3,2.8-3.5,5.9-3.5,9.4V499c0,0.8-0.3,1.1-1.1,1.1h-5.1c-0.8,0-1.1-0.3-1.1-1.1v-39.8c0-0.8,0.3-1.1,1.1-1.1h5.1
		c0.8,0,1.1,0.3,1.1,1.1v7.3c2.6-4.9,7.8-9.2,14.5-9.2c10.7,0,16.2,7.2,16.2,19.5V499c0,0.8-0.3,1.1-1.1,1.1H928z"/>
	<path class="st4" d="M977.3,495.8c0.4,0.6,0.3,1.2-0.4,1.6c-3.6,2.4-7.7,3.6-12.2,3.6c-6,0-11.1-2.1-15.2-6.3
		c-4.1-4.3-6.1-9.4-6.1-15.5s2-11.2,6.1-15.4c4.1-4.3,9.2-6.4,15.2-6.4c4.4,0,8.6,1.3,12.2,3.7c0.8,0.4,0.9,1,0.4,1.7l-2.9,3.9
		c-0.4,0.6-0.9,0.7-1.6,0.3c-2.4-1.6-5.2-2.4-8.1-2.4c-4,0-7.4,1.4-10.1,4.3c-2.7,2.9-4,6.4-4,10.5s1.3,7.6,4,10.5
		c2.8,2.9,6.1,4.3,10.1,4.3c2.9,0,5.7-0.8,8.3-2.3c0.7-0.4,1.2-0.3,1.5,0.3L977.3,495.8z"/>
	<path class="st4" d="M1006,457.4c8,0,13.4,1.9,16.2,5.7c2.9,3.7,3.9,8.1,3.9,14.4v21.4c0,0.8-0.4,1.3-1.3,1.3h-4.6
		c-0.8,0-1.2-0.4-1.2-1.3v-4.3c-4.5,4.3-10.4,6.4-17.6,6.4c-6.9,0-14.5-2.5-14.5-12.3c0-6.5,3.9-9.4,9.4-11.5
		c1.8-0.7,3.8-1.2,6.2-1.4c4.9-0.7,8.7-0.8,14.2-0.8h1.8v-0.3c0-1.8,0.1-2.5-0.8-4.9c-1.2-3-4.4-5.8-12.2-5.8
		c-3.8,0-8.6,0.9-10.9,1.8l-1.7,0.6c-0.8,0.3-1.3,0.1-1.6-0.7l-1.3-3.5c-0.3-0.8-0.1-1.3,0.7-1.7C995,458.4,1000.1,457.4,1006,457.4
		z M1018.9,479.6h-1.2c-15.3,0-23.1,2.1-23.1,8.8c0,4.9,3.4,7.5,10.1,7.5c3.6,0,6.8-0.9,9.7-2.8c2.9-1.8,4.4-3.8,4.4-5.8V479.6z"/>
</g>
</svg>
